<svg width="128" height="128" viewBox="0 0 128 128" fill="none" xmlns="http://www.w3.org/2000/svg">
<rect width="128" height="128" fill="black"/>
<path d="M22.028 88C21.1213 88 20.464 87.796 20.056 87.388C19.6933 86.98 19.512 86.368 19.512 85.552V44.276C19.512 43.4147 19.6933 42.78 20.056 42.372C20.464 41.964 21.1213 41.76 22.028 41.76H25.632C26.5387 41.76 27.196 41.964 27.604 42.372C28.012 42.78 28.216 43.4147 28.216 44.276V61.412H50.52V44.276C50.52 43.4147 50.724 42.78 51.132 42.372C51.54 41.964 52.1973 41.76 53.104 41.76H56.64C57.5467 41.76 58.204 41.964 58.612 42.372C59.02 42.78 59.224 43.4147 59.224 44.276V85.552C59.224 86.368 59.02 86.98 58.612 87.388C58.2493 87.796 57.592 88 56.64 88H53.104C52.1973 88 51.54 87.796 51.132 87.388C50.724 86.98 50.52 86.368 50.52 85.552V68.008H28.216V85.552C28.216 86.368 28.012 86.98 27.604 87.388C27.2413 87.796 26.584 88 25.632 88H22.028ZM67.0541 88C66.2834 88 65.8981 87.66 65.8981 86.98C65.8981 86.708 65.9661 86.4133 66.1021 86.096L84.0541 43.528C84.3261 42.848 84.6208 42.3947 84.9381 42.168C85.2554 41.896 85.7088 41.76 86.2981 41.76H90.0381C90.6728 41.76 91.1261 41.896 91.3981 42.168C91.7154 42.3947 92.0101 42.848 92.2821 43.528L110.234 86.096C110.37 86.4133 110.438 86.708 110.438 86.98C110.438 87.66 110.053 88 109.282 88H103.366C102.777 88 102.346 87.932 102.074 87.796C101.847 87.6147 101.621 87.2747 101.394 86.776L97.5181 77.256H78.7501L74.9421 86.776C74.7154 87.2747 74.4661 87.6147 74.1941 87.796C73.9674 87.932 73.5594 88 72.9701 88H67.0541ZM95.3421 70.932L88.1341 53.116L80.9261 70.932H95.3421Z" fill="#FFFEFE"/>
</svg>
