<svg width="128" height="128" viewBox="0 0 128 128" fill="none" xmlns="http://www.w3.org/2000/svg">
<g clip-path="url(#clip0)">
<rect width="128" height="128" fill="black"/>
<path d="M20.72 89.5C19.7867 89.5 19.11 89.29 18.69 88.87C18.3167 88.45 18.13 87.82 18.13 86.98V44.49C18.13 43.6033 18.3167 42.95 18.69 42.53C19.11 42.11 19.7867 41.9 20.72 41.9H24.43C25.3633 41.9 26.04 42.11 26.46 42.53C26.88 42.95 27.09 43.6033 27.09 44.49V62.13H50.05V44.49C50.05 43.6033 50.26 42.95 50.68 42.53C51.1 42.11 51.7767 41.9 52.71 41.9H56.35C57.2833 41.9 57.96 42.11 58.38 42.53C58.8 42.95 59.01 43.6033 59.01 44.49V86.98C59.01 87.82 58.8 88.45 58.38 88.87C58.0067 89.29 57.33 89.5 56.35 89.5H52.71C51.7767 89.5 51.1 89.29 50.68 88.87C50.26 88.45 50.05 87.82 50.05 86.98V68.92H27.09V86.98C27.09 87.82 26.88 88.45 26.46 88.87C26.0867 89.29 25.41 89.5 24.43 89.5H20.72ZM67.0704 89.5C66.2771 89.5 65.8804 89.15 65.8804 88.45C65.8804 88.17 65.9504 87.8667 66.0904 87.54L84.5704 43.72C84.8504 43.02 85.1537 42.5533 85.4804 42.32C85.8071 42.04 86.2737 41.9 86.8804 41.9H90.7304C91.3837 41.9 91.8504 42.04 92.1304 42.32C92.4571 42.5533 92.7604 43.02 93.0404 43.72L111.52 87.54C111.66 87.8667 111.73 88.17 111.73 88.45C111.73 89.15 111.334 89.5 110.54 89.5H104.45C103.844 89.5 103.4 89.43 103.12 89.29C102.887 89.1033 102.654 88.7533 102.42 88.24L98.4304 78.44H79.1104L75.1904 88.24C74.9571 88.7533 74.7004 89.1033 74.4204 89.29C74.1871 89.43 73.7671 89.5 73.1604 89.5H67.0704ZM96.1904 71.93L88.7704 53.59L81.3504 71.93H96.1904Z" fill="#FFFEFE"/>
</g>
<defs>
<clipPath id="clip0">
<rect width="128" height="128" fill="white"/>
</clipPath>
</defs>
</svg>
