<svg width="128" height="128" viewBox="0 0 128 128" fill="none" xmlns="http://www.w3.org/2000/svg">
<rect width="128" height="128" fill="black"/>
<path d="M31.6406 58.0234C33.4635 57.8151 35.3516 57.6328 37.3047 57.4766C39.2839 57.3203 41.1328 57.2422 42.8516 57.2422C43.3724 57.2161 43.9714 57.1901 44.6484 57.1641C45.2214 57.138 45.8854 57.125 46.6406 57.125C47.4219 57.099 48.2682 57.0859 49.1797 57.0859C50.1432 57.0859 51.1589 57.099 52.2266 57.125C53.3203 57.151 54.4141 57.1901 55.5078 57.2422C55.612 55.6797 55.7161 54.0651 55.8203 52.3984C55.9245 50.7318 56.0156 49.1302 56.0938 47.5938C56.1979 46.0312 56.276 44.599 56.3281 43.2969C56.4062 41.9688 56.4714 40.862 56.5234 39.9766V37.3203C56.5234 36.5911 56.5234 35.875 56.5234 35.1719C56.5234 34.4427 56.5495 33.8568 56.6016 33.4141C56.7839 32.5547 57.1615 32.125 57.7344 32.125C58.0729 32.125 58.3333 32.1641 58.5156 32.2422C58.6979 32.3203 59.0234 32.4635 59.4922 32.6719C59.7266 32.75 59.974 32.8542 60.2344 32.9844C60.5208 33.1146 60.7943 33.2578 61.0547 33.4141C61.3151 33.5443 61.5495 33.6875 61.7578 33.8438C61.9661 33.974 62.1224 34.0911 62.2266 34.1953C62.3307 34.2995 62.4609 34.4818 62.6172 34.7422C62.7734 34.9766 62.9297 35.237 63.0859 35.5234C63.2422 35.8099 63.3724 36.1094 63.4766 36.4219C63.5807 36.7083 63.6198 36.9557 63.5938 37.1641C63.5677 37.3724 63.5026 38.1406 63.3984 39.4688C63.2943 40.7708 63.1641 42.5026 63.0078 44.6641C62.8516 46.7995 62.6823 49.2865 62.5 52.125C62.3177 54.9635 62.1484 57.9974 61.9922 61.2266C61.7578 66.4349 61.6406 70.7578 61.6406 74.1953C61.6406 76.7734 61.6797 78.8568 61.7578 80.4453C61.862 82.0339 61.9922 83.1536 62.1484 83.8047C62.3828 84.8984 62.5521 85.6797 62.6562 86.1484C62.7604 86.6172 62.7474 86.9297 62.6172 87.0859C62.5651 87.138 62.487 87.1901 62.3828 87.2422C62.1224 87.3464 61.6927 87.4505 61.0938 87.5547C60.9896 87.8411 60.8854 88.0755 60.7812 88.2578C60.6771 88.4141 60.5729 88.5443 60.4688 88.6484C60.3646 88.7526 60.2604 88.8438 60.1562 88.9219C59.8958 89 59.6484 89.0781 59.4141 89.1562C59.1797 89.2344 58.9974 89.2083 58.8672 89.0781C58.7891 89.0521 58.724 89.013 58.6719 88.9609C58.5677 88.9089 58.4766 88.7656 58.3984 88.5312C58.138 88.6354 57.9036 88.6354 57.6953 88.5312C57.5911 88.4792 57.5 88.4271 57.4219 88.375C57.2135 88.1927 56.9141 87.8672 56.5234 87.3984C56.1328 86.9297 55.8724 86.2917 55.7422 85.4844C55.6901 85.0938 55.599 84.6771 55.4688 84.2344C55.3646 83.7656 55.2474 83.2969 55.1172 82.8281C55.013 82.3333 54.8958 81.8646 54.7656 81.4219C54.6615 80.9531 54.5833 80.5234 54.5312 80.1328C54.4531 79.7682 54.4141 79 54.4141 77.8281C54.4401 76.6562 54.4792 75.2891 54.5312 73.7266C54.6094 72.1641 54.7005 70.4974 54.8047 68.7266C54.9089 66.9557 55.013 65.2891 55.1172 63.7266C55.1172 63.5182 55.1172 63.2969 55.1172 63.0625C55.1172 62.8281 55.1432 62.5677 55.1953 62.2812C54.0234 62.2292 52.8646 62.2031 51.7188 62.2031C50.599 62.2031 49.5182 62.2031 48.4766 62.2031C47.1745 62.2031 45.9896 62.2161 44.9219 62.2422C43.8542 62.2422 42.9167 62.2552 42.1094 62.2812C41.1719 62.3073 40.3255 62.3333 39.5703 62.3594C36.8099 62.3594 34.1406 62.4375 31.5625 62.5938C31.5365 62.9844 31.5104 63.3229 31.4844 63.6094C31.4844 63.8958 31.4844 64.1432 31.4844 64.3516V64.9375C31.4323 67.4896 31.3802 69.9375 31.3281 72.2812C31.276 74.625 31.237 76.7214 31.2109 78.5703C31.1849 80.4193 31.1589 81.9557 31.1328 83.1797C31.1328 84.4036 31.1458 85.1719 31.1719 85.4844C31.1719 85.7448 31.1589 86.0182 31.1328 86.3047C31.1068 86.5651 31.0547 86.8776 30.9766 87.2422C30.9245 87.5807 30.8333 87.9583 30.7031 88.375C30.4427 88.401 30.1953 88.4922 29.9609 88.6484C29.8568 88.7266 29.7526 88.7917 29.6484 88.8438C29.4141 89 29.1927 89.1693 28.9844 89.3516C28.8021 89.5599 28.6328 89.599 28.4766 89.4688C28.2682 89.3125 28.0078 89.2083 27.6953 89.1562C27.4089 89.1042 27.0443 89.0781 26.6016 89.0781C26.3932 89.0781 26.1719 89.013 25.9375 88.8828C25.7031 88.7526 25.4818 88.6094 25.2734 88.4531C25.0651 88.2708 24.8828 88.0755 24.7266 87.8672C24.5703 87.6589 24.4792 87.4766 24.4531 87.3203C24.401 87.1641 24.3359 86.9427 24.2578 86.6562C24.1797 86.3438 24.1016 86.0312 24.0234 85.7188C23.9714 85.3802 23.9193 85.0677 23.8672 84.7812C23.8151 84.4688 23.776 84.2474 23.75 84.1172C23.724 83.987 23.724 83.3359 23.75 82.1641C23.776 80.9922 23.8281 79.4557 23.9062 77.5547C23.9844 75.6276 24.0755 73.4271 24.1797 70.9531C24.2839 68.4531 24.401 65.8229 24.5312 63.0625C23.5417 63.1667 22.7083 63.2578 22.0312 63.3359C21.3542 63.388 20.9375 63.4401 20.7812 63.4922C20.4948 63.5443 20.2604 63.6094 20.0781 63.6875C19.9219 63.7396 19.7786 63.7917 19.6484 63.8438C19.5443 63.8958 19.4401 63.9349 19.3359 63.9609C19.2318 63.9609 19.1276 63.9349 19.0234 63.8828C18.8672 63.8828 18.7109 63.7917 18.5547 63.6094C18.4245 63.401 18.3333 63.1667 18.2812 62.9062C17.9948 62.8542 17.7995 62.763 17.6953 62.6328C17.6172 62.4766 17.5521 62.3594 17.5 62.2812C17.5 62.0729 17.5911 61.9297 17.7734 61.8516C17.9818 61.7474 18.2943 61.487 18.7109 61.0703C18.8932 60.888 19.1536 60.7188 19.4922 60.5625C19.8568 60.3802 20.2344 60.2109 20.625 60.0547C21.0156 59.8984 21.3932 59.7682 21.7578 59.6641C22.1484 59.5339 22.487 59.4427 22.7734 59.3906L24.6875 59.0781C24.8438 56.526 25 54.1953 25.1562 52.0859C25.3125 49.9766 25.4557 48.0234 25.5859 46.2266C25.7161 44.4297 25.8203 42.763 25.8984 41.2266C26.0026 39.6641 26.0547 38.1536 26.0547 36.6953C26.0547 36.2786 26.0417 35.888 26.0156 35.5234C25.9896 35.1589 25.9766 34.7682 25.9766 34.3516C25.9766 34.0391 26.0547 33.7786 26.2109 33.5703C26.3932 33.3359 26.6146 33.1927 26.875 33.1406H27.3438C27.6302 33.1406 28.1641 33.1797 28.9453 33.2578C29.0495 32.9974 29.1667 32.8281 29.2969 32.75C29.375 32.6979 29.4401 32.6719 29.4922 32.6719C29.7005 32.6719 29.8698 32.724 30 32.8281C30.1562 32.9062 30.2604 32.9844 30.3125 33.0625C30.3125 33.1146 30.3255 33.1667 30.3516 33.2188C30.3776 33.2969 30.4167 33.4141 30.4688 33.5703C30.6771 33.6224 30.8333 33.6745 30.9375 33.7266C31.0417 33.7786 31.1328 33.8307 31.2109 33.8828C31.2891 33.9609 31.3542 34.013 31.4062 34.0391L31.5234 34.2734C31.6016 34.4297 31.6797 34.7292 31.7578 35.1719C31.9401 35.5625 32.0573 35.8359 32.1094 35.9922C32.1354 36.0964 32.1484 36.1615 32.1484 36.1875C32.1484 36.2396 32.1615 36.3047 32.1875 36.3828C32.1875 36.4349 32.1875 36.487 32.1875 36.5391C32.2135 36.5911 32.2266 36.6432 32.2266 36.6953L31.6406 58.0234ZM110.234 87.8672C110.234 88.0755 110.104 88.1927 109.844 88.2188C109.583 88.2188 109.31 88.2188 109.023 88.2188C108.893 88.2448 108.763 88.2708 108.633 88.2969C108.503 88.349 108.359 88.401 108.203 88.4531C108.073 88.4792 107.943 88.5573 107.812 88.6875C107.865 88.9479 107.878 89.1432 107.852 89.2734C107.852 89.4297 107.852 89.5469 107.852 89.625L107.812 89.7812C107.734 89.8854 107.578 89.9635 107.344 90.0156C107.109 90.0938 106.862 90.1328 106.602 90.1328C106.549 90.1328 106.471 90.1198 106.367 90.0938C106.185 90.0417 106.003 89.9115 105.82 89.7031C105.378 89.5729 104.857 89.4427 104.258 89.3125C103.945 89.2344 103.607 89.1562 103.242 89.0781C102.956 89 102.708 88.7917 102.5 88.4531C102.292 88.1146 102.096 87.724 101.914 87.2812C101.758 86.8125 101.602 86.3438 101.445 85.875C101.315 85.3802 101.198 84.9505 101.094 84.5859L97.2656 72.5156C96.6927 72.5156 95.9635 72.5286 95.0781 72.5547C94.2188 72.5547 93.2943 72.5677 92.3047 72.5938C91.3151 72.5938 90.3125 72.6198 89.2969 72.6719C88.2812 72.6979 87.3568 72.724 86.5234 72.75L78.7109 73.1406L74.1406 85.0938C74.0625 85.224 73.9453 85.4844 73.7891 85.875C73.6589 86.2656 73.5156 86.6823 73.3594 87.125C73.2031 87.5417 73.0599 87.9453 72.9297 88.3359C72.7995 88.7005 72.7214 88.9219 72.6953 89C72.6432 89.2083 72.487 89.3385 72.2266 89.3906C71.9661 89.4427 71.7448 89.4948 71.5625 89.5469C71.4062 89.599 71.276 89.7422 71.1719 89.9766C71.0677 90.2109 70.9115 90.3672 70.7031 90.4453C70.4948 90.5755 70.2344 90.5885 69.9219 90.4844C69.6094 90.3802 69.3359 90.2109 69.1016 89.9766C68.8932 89.7161 68.8151 89.3906 68.8672 89C68.9193 88.5833 68.9453 88.1536 68.9453 87.7109C68.9453 87.2682 68.9323 86.8516 68.9062 86.4609C68.9062 86.0703 68.9714 85.6927 69.1016 85.3281C69.1536 85.1719 69.3099 84.6901 69.5703 83.8828C69.8568 83.0495 70.2083 82.0599 70.625 80.9141C71.0417 79.7422 71.4974 78.4792 71.9922 77.125C72.487 75.7448 72.9948 74.4167 73.5156 73.1406C73.0469 73.1406 72.7214 73.0104 72.5391 72.75C72.4089 72.5417 72.2526 72.4245 72.0703 72.3984C71.888 72.3464 71.6927 72.2812 71.4844 72.2031C71.276 72.151 71.1328 72.0339 71.0547 71.8516C70.9766 71.6693 70.9635 71.513 71.0156 71.3828C71.0677 71.2266 71.0286 71.0964 70.8984 70.9922C70.7682 70.888 70.7031 70.6536 70.7031 70.2891C70.7031 70.1328 70.8203 69.9896 71.0547 69.8594C71.3151 69.7031 71.6276 69.5729 71.9922 69.4688C72.3568 69.3646 72.7604 69.2734 73.2031 69.1953C73.6719 69.1172 74.1146 69.0521 74.5312 69C74.6094 69 74.7005 69 74.8047 69C74.9349 69 75.0651 68.974 75.1953 68.9219C75.7682 67.5417 76.4193 66.0573 77.1484 64.4688C77.8776 62.8542 78.6198 61.2135 79.375 59.5469C80.1562 57.8802 80.9375 56.2135 81.7188 54.5469C82.5 52.8802 83.2422 51.3177 83.9453 49.8594C84.6484 48.375 85.2865 47.0208 85.8594 45.7969C86.4583 44.5729 86.9531 43.5573 87.3438 42.75C87.0312 41.7865 86.7448 40.901 86.4844 40.0938C86.25 39.2865 86.0417 38.5833 85.8594 37.9844C85.6771 37.3854 85.5339 36.9167 85.4297 36.5781C85.3255 36.2135 85.2734 36.0052 85.2734 35.9531C85.2474 35.901 85.2474 35.849 85.2734 35.7969C85.3255 35.6667 85.4557 35.5885 85.6641 35.5625C85.4557 35.1719 85.3516 34.8854 85.3516 34.7031C85.3516 34.599 85.3776 34.5339 85.4297 34.5078C85.4818 34.4557 85.612 34.4036 85.8203 34.3516C86.0286 34.2995 86.25 34.2604 86.4844 34.2344C86.7188 34.1823 86.9401 34.1562 87.1484 34.1562C87.3568 34.1302 87.5 34.1172 87.5781 34.1172C87.6042 34.1172 87.6693 34.1302 87.7734 34.1562C87.9297 34.2083 88.151 34.3255 88.4375 34.5078C88.4635 34.3776 88.4896 34.2865 88.5156 34.2344C88.5677 34.1823 88.6198 34.1302 88.6719 34.0781L88.7891 33.9609C88.9453 33.8828 89.1146 33.8698 89.2969 33.9219C89.4792 33.9479 89.6484 33.9609 89.8047 33.9609C89.9609 33.9609 90.0651 33.8958 90.1172 33.7656C90.1953 33.6354 90.3646 33.5703 90.625 33.5703C90.9635 33.5703 91.25 33.9349 91.4844 34.6641C91.5104 34.7943 91.6927 35.2891 92.0312 36.1484C92.3698 36.9818 92.7995 38.0885 93.3203 39.4688C93.8411 40.8229 94.4401 42.3984 95.1172 44.1953C95.8203 45.9922 96.5495 47.9062 97.3047 49.9375C98.0599 51.9427 98.8151 54.026 99.5703 56.1875C100.352 58.3229 101.094 60.4323 101.797 62.5156C103.255 66.7604 104.479 70.3411 105.469 73.2578C106.458 76.1745 107.253 78.5573 107.852 80.4062C108.477 82.2552 108.932 83.6354 109.219 84.5469C109.531 85.4583 109.727 86.0052 109.805 86.1875C109.935 86.6042 110.039 86.9427 110.117 87.2031C110.195 87.4375 110.234 87.6589 110.234 87.8672ZM93.3984 61.1484C92.7214 59.2214 91.9792 57.0599 91.1719 54.6641C90.3906 52.2682 89.6224 49.8984 88.8672 47.5547C88.4245 48.7005 87.8906 50.0807 87.2656 51.6953C86.6406 53.3099 85.9766 54.9766 85.2734 56.6953C84.5964 58.4141 83.9323 60.0938 83.2812 61.7344C82.6302 63.375 82.0573 64.7812 81.5625 65.9531L80.4688 68.5312L87.5 68.1016C88.099 68.1016 88.8151 68.0885 89.6484 68.0625C91.0547 68.0365 93.0859 67.9974 95.7422 67.9453L93.3984 61.1484Z" fill="#FFFEFE"/>
</svg>
