<svg xmlns="http://www.w3.org/2000/svg" width="750" height="750" fill="none"  xmlns:v="https://vecta.io/nano"><path fill="#fff" d="M0 0h750v750H0z"/><g fill-rule="evenodd"><path d="M300.673 570.676c104.754 29.459 155.726-83.59 245.481-74.989 49.132 4.708 147.065 28.571 146.846-145.255-.547-112.221-103.984-140.323-210.649-82.771-31.387 12.275-56.167 8.471-83.073-3.725s-61.508-66.643-126.725-77.844C76.294 152.384-91.63 460.355 300.673 570.676z" fill="#64cefc"/><path d="M549.609 288.346c1.965-.956 5.491.897 3.446 3.879-4.53 6.604 12.987 19.795 7.364 8.171-.601-1.243-3.684-9.838.678-5.4s10.445 24.046 6.511 30.802c-3.452 5.929-12.588 8.75-25.06 9.084l-.561.012-.266.016c-7.352.342-12.927-4.208-16.525-13.069l-.173-.432c-3.643-9.275-2.644-16.71 3.247-21.723a2.57 2.57 0 0 1 .342-.245l.186-.099 20.811-10.996z" fill="#fff"/><path d="M152.426 114.765c-.858-1.217-2.248-1.918-3.732-1.736a3.91 3.91 0 0 0-3.253 2.699l-.123.39-.336.988-1.359 3.496c-1.518 3.592-3.387 7.177-5.618 10.512-4.813 7.195-10.612 12.204-17.41 14.133a2 2 0 0 0-1.378 2.47c.153.539 10.081 5.501 20.217 4.25 9.831-1.213 19.88-8.625 19.961-9.129l.123-1.05.035-.352c.704-7.637-.632-16.262-5.774-24.618-.427-.695-.878-1.379-1.353-2.053z" fill="#e7eaee"/><path d="M172.884 116.986l-.052.404c-.713 5.17-2.708 12.369-6.318 17.8-4.443 6.686-10.714 11.799-17.016 15.094-9.092 4.754-18.987 5.624-28.731-.552l-.43-.276c-5.12-3.349-9.006-4.962-14.337-3.631s-7.921 5.214-10.222 8.816l-.106.153c-.369.492-.909.834-1.517.954l-10.108 1.601 3.681 4.573 2.363 2.998 4.046 5.33c12.058 15.815 25.035 30.916 50.341 25.688l.858-.184c6.704-1.49 12.325 2.513 19.377 8.412l1.507 1.269c1.865 1.578 7.505 6.55 9.813 8.943l.754.792.696.748.414.456.72.811.442-.522c4.773-5.746 7.763-14.499 9.311-21.719a51.4 51.4 0 0 0 1.06-7.751l.017-.313a40.92 40.92 0 0 0 .055-1.834v-.381l-.721.211c-8.346 2.367-17.737 2.603-26.9 1.546-2.213-.256 22.068-19.922 17.084-45.391-1.136-5.805-1.857-13.566-3.841-18.834-.626-1.661-1.274-3.18-1.917-4.539l-.323-.672z" fill="#fff"/><path d="M550.665 291.491l-20.774 10.099c-4.98 4.237-5.827 10.539-2.541 18.905 1.153 2.936 4.038 9.928 4.038 7.181 0-.857 19.277-13.458 22.976-12.225 3.419 1.14-2.724-9.136-4.446-13.861l.747-10.357.571-1.032m-28.288 8.869c1.381 0-6.443 3.679-6.04 10.465s5.706 19.293 4.417 19.786-3.735-3.154-4.228-4.443c-3.067-8.025-3.647-11.3-3.538-15.98.144-6.127 3.366-9.828 9.389-9.828z" fill="#e7eaee"/></g><ellipse cx="557.762" cy="305.792" rx="5.4" ry="12.199" fill="#e7eaee"/><g fill-rule="evenodd"><path d="M180.567 434.416c0-21.167 2.352-30.371 27.606-41.923 51.76-20.921 51.76-21.727 150.92-60.065 26.224-10.086 81.51 14.075 105.551 3.949 16.027-6.75 31.014-11.763 44.256-18.458 1.282 8.373 9.571 22.549 12.49 24.986-15.506 3.254-30.505 8.287-44.997 15.097-31.329 14.722-12.764 10.71-62.387 57.507-4.206 3.965-19.659 13.007-42.004 22.426 0 0-45-6.043-63.048-13.55-18.368-7.64-46.2-31.892-46.2-31.892s-32.46 21.177-51.121 30.696c-8.735 4.455-31.066 11.227-31.066 11.227z" fill="#fff"/><g fill="#e7eaee"><path d="M180.567 423.416c0-4.969-.525-8.437 0-12.272 1.711-12.504 8.417-18.901 27.744-27.742 51.76-20.921 51.622-23.636 150.782-61.974 26.224-10.086 81.509 14.075 105.55 3.949 16.028-6.75 31.015-11.763 44.257-18.458.037.24-1.341 11.682-1.341 11.682s-32.688 17.262-54.311 20.922c-22.975 3.889-54.531-14.146-86.04-5.276-47.985 13.508-158.562 55.964-171.643 66.604-10.278 8.36-14.998 22.565-14.998 22.565zm-28.141-308.651c-.858-1.217-2.248-1.918-3.732-1.736a3.91 3.91 0 0 0-3.253 2.699l-.123.39-.336.988-1.359 3.496c-1.518 3.592-3.387 7.177-5.618 10.512-4.813 7.195-10.612 12.204-17.41 14.133a2 2 0 0 0-1.378 2.47c.301 1.062 16.819-6.464 22.113-14.379 2.383-3.563 4.367-7.368 5.978-11.178a68.89 68.89 0 0 0 1.271-3.232l.176-.493.367-1.082c.026-.227.051-.303.073-.228 11.458 7.838 6.954 27.292 8.054 27.386a2 2 0 0 0 2.146-1.673l.123-1.05.035-.352c.704-7.637-.632-16.262-5.774-24.618-.427-.695-.878-1.379-1.353-2.053z"/><path d="M176.283 114.706l.252.45.308.579.621 1.236 2.339 5.464c2.14 5.68 3.635 11.811 4.146 18.197.693 8.667-.558 16.847-3.727 24.288l-.271.625c-2.574 5.812-6.324 11.138-11.192 15.917l-.483.467.41.02c7.011.294 13.944-.333 20.038-2.276a4.41 4.41 0 0 1 3.858.581c1.124.782 1.822 2.04 1.892 3.407l.016.424.01.561v.215c0 .783-.023 1.66-.079 2.622a56.12 56.12 0 0 1-1.162 8.509c-1.811 8.446-5.431 16.358-11.348 23.024-.786.885-1.89 1.415-3.065 1.478l-.271.006a4.45 4.45 0 0 1-3.214-1.427l-.596-.693-.292-.332-.621-.69-.68-.734-.738-.775c-2.172-2.252-4.57-4.486-7.117-6.541-7.058-5.695-13.867-8.911-19.682-8.563-9.511.572-17.388.127-24.696-1.923-9.447-2.651-16.866-7.852-21.775-16.131l-.275-.472c-2.542-4.432-6.295-9.538-10.723-14.853a186.63 186.63 0 0 0-4.005-4.648l-.547-.612-1.895-2.068c-1.111-1.171-1.497-2.851-1.012-4.388l.071-.207c.533-1.436 1.774-2.5 3.285-2.798l8.106-1.602.094-.137c2.901-4.122 7.042-7.615 12.544-9.021 5.738-1.468 11.776-.192 17.857 3.667l.424.273c8.213 5.371 16.353 5.075 24.093 1.028 5.528-2.89 10.798-7.799 14.79-13.807 3.713-5.585 5.919-11.556 6.077-16.269.065-1.969 1.424-3.66 3.334-4.143s3.912.364 4.901 2.072zm-3.399 2.28l-.052.404c-.712 5.17-2.708 12.369-6.317 17.8-4.444 6.686-10.715 11.799-17.017 15.094-9.091 4.754-18.987 5.624-28.731-.552l-.43-.276c-5.12-3.349-9.006-4.962-14.337-3.631s-7.921 5.214-10.222 8.816l-.105.153c-.369.492-.909.834-1.517.954l-10.108 1.601 3.681 4.573 2.363 2.998 4.046 5.33c12.058 15.815 25.035 30.916 50.341 25.688l.858-.184c6.704-1.49 12.325 2.513 19.377 8.412l1.507 1.269c1.865 1.578 7.505 6.55 9.813 8.943l.754.792.696.748.415.456.719.811.442-.522c4.773-5.746 7.763-14.499 9.311-21.719.585-2.728.92-5.34 1.06-7.751l.017-.313a40.92 40.92 0 0 0 .055-1.834v-.381l-.721.211c-8.346 2.367-17.737 2.603-26.9 1.546-2.213-.256 22.068-19.922 17.084-45.391-1.136-5.805-1.857-13.566-3.841-18.834a60.28 60.28 0 0 0-1.917-4.539l-.323-.672z"/></g><path d="M109.5 162c1.93 0 3.5-1.57 3.5-3.5s-1.57-3.5-3.5-3.5-3.5 1.57-3.5 3.5 1.57 3.5 3.5 3.5z" fill="#00160a"/></g><g fill="#ffb61d"><ellipse cx="112.5" cy="171.5" rx="5.5" ry="4.5"/><ellipse cx="112.5" cy="171.5" rx="5.5" ry="4.5"/></g><path fill-rule="evenodd" d="M176.283 114.706l.252.45.308.579.621 1.236 2.34 5.464c2.139 5.68 3.635 11.811 4.145 18.197.693 8.667-.558 16.847-3.726 24.288l-.272.625c-2.574 5.812-6.324 11.138-11.192 15.917l-.483.467.41.02c7.011.294 13.944-.333 20.038-2.276a4.41 4.41 0 0 1 3.858.581c1.124.782 1.822 2.04 1.892 3.407l.016.424.01.561v.215c0 .783-.023 1.66-.079 2.622a56.12 56.12 0 0 1-1.162 8.509c-1.811 8.446-5.431 16.358-11.348 23.024-.785.885-1.89 1.415-3.065 1.478l-.271.006a4.45 4.45 0 0 1-3.214-1.427l-.596-.693-.292-.332-.621-.69-.68-.734-.738-.775c-2.172-2.252-4.57-4.486-7.117-6.541-7.058-5.695-13.867-8.911-19.682-8.563-9.511.572-17.388.127-24.696-1.923-9.447-2.651-16.866-7.852-21.775-16.131l-.275-.472c-2.542-4.432-6.295-9.538-10.723-14.853a186.63 186.63 0 0 0-4.005-4.648l-.547-.612-1.895-2.068c-1.111-1.171-1.497-2.851-1.012-4.388l.071-.207c.533-1.436 1.774-2.5 3.285-2.798l8.106-1.602.094-.137c2.901-4.122 7.042-7.615 12.543-9.021 5.415-1.385 11.097-.327 16.83 3.039 6.351-2.128 11.803-6.986 16.368-13.81 2.231-3.335 4.1-6.92 5.618-10.512a61.74 61.74 0 0 0 1.359-3.496l.336-.988.123-.39a3.91 3.91 0 0 1 3.253-2.699c1.484-.182 2.874.519 3.732 1.736.475.674.926 1.358 1.353 2.053 3.991 6.486 5.69 13.135 5.921 19.357a46.35 46.35 0 0 0 2.271-3.129c3.713-5.585 5.919-11.556 6.077-16.269.065-1.969 1.424-3.66 3.334-4.143s3.912.364 4.901 2.072zm-29.102 32.147c-7.518 3.931-15.414 4.323-23.387-.58 5.368-2.482 13.982-7.621 17.536-12.935 2.383-3.563 4.367-7.368 5.978-11.178a67.81 67.81 0 0 0 1.271-3.232l.176-.493.367-1.082c.026-.227.051-.303.073-.228 7.616 5.21 8.18 15.553 8.024 21.93-3.061 3.266-6.496 5.946-10.038 7.798zm2.317 3.431c3.051-1.595 6.094-3.616 8.927-6.036.218-.127.41-.294.567-.492 2.799-2.469 5.374-5.334 7.523-8.566 3.609-5.431 5.605-12.63 6.317-17.8l.052-.404.324.672a60.71 60.71 0 0 1 1.916 4.539c1.381 3.666 2.15 8.54 2.873 13.121h0l.968 5.713c3.82 19.521-9.552 35.633-15.009 42.209-1.663 2.004-2.592 3.122-2.075 3.182 9.163 1.057 18.554.821 26.9-1.546l.721-.211v.381a39.47 39.47 0 0 1-.055 1.834l-.017.313c-.14 2.411-.475 5.023-1.06 7.751-1.548 7.22-4.537 15.973-9.311 21.719l-.442.522-.719-.811-.415-.456-.696-.748-.754-.792c-2.308-2.393-7.948-7.365-9.813-8.943l-1.507-1.269c-7.052-5.899-12.673-9.902-19.377-8.412l-.858.184c-25.306 5.228-38.283-9.873-50.341-25.688l-4.046-5.33c-.467-.612-1.255-1.612-2.362-2.998l-3.681-4.573 10.108-1.601c.608-.12 1.148-.462 1.517-.954l.105-.153c2.302-3.602 4.891-7.485 10.222-8.816s9.217.282 14.337 3.631l.43.276c9.744 6.176 19.64 5.306 28.731.552zm400.111 138.062c1.965-.956 5.491.897 3.446 3.879-3.097 4.515.344 14.999 2.439 21.385h0v.001h.001v.001c.969 2.953 1.65 5.029 1.263 5.231a2.5 2.5 0 0 1-3.374-1.057c-3.463-6.627-5.451-11.889-5.947-15.888-.247-1.991-.302-3.916-.162-5.773l.018-.215-16.01 7.782-.202.186c-3.614 3.391-5.204 7.327-2.56 14.299l.156.404c2.872 7.31 7.732 12.554 12.788 12.336l.396-.021c11.236-.225 17.952-3.607 20.349-7.724 3.015-5.177 3.833-11.152-1.79-22.776-.602-1.243-3.685-9.838.677-5.4s10.445 24.046 6.511 30.802c-3.284 5.64-11.711 8.467-23.26 9.017a2.47 2.47 0 0 1 .036.922c-1.094 7.424-4.482 12.094-10.149 13.445-4.333 1.033-8.99-.336-13.256-3.634-14.987 3.219-29.494 8.124-43.523 14.716l-2.078.985c-7.157 3.419-11.262 5.71-14.259 7.938-1.758 1.307-3.21 2.645-4.771 4.368l-.252.286c-.757.878-2.407 2.894-4.285 5.187l-.004.005-.002.003-.002.002-.006.008-.003.003-7.125 8.592-.836.963c-7.041 8.068-15.915 17.221-28.112 28.723l-.342.314c-4.573 4.086-16.725 10.995-31.879 17.962 41.822-1.486 71.978-17.449 90.758-47.915a2.5 2.5 0 0 1 3.827-.522c32.293 29.908 69.71 43.749 112.396 41.587 42.8-2.167 74.207-13.291 94.32-33.262a2.5 2.5 0 0 1 3.523 3.548c-21.099 20.951-65.894 36.672-109.823 38.896-42.721 2.163-68.211-15.44-100.804-44.372l-.797-.712-.285.439c-20.642 31.283-65.49 54.099-110.245 54.422l-1.402.005c-45.778 0-72.179-22.165-103.063-52.461l-.241-.238-.11.095-.807.678-1.891 1.591c-28.939 24.354-50.532 42.525-83.013 47.168l-1.036.144c-36.624 7.41-92.168-12.327-100.704-22.002-7.821-8.864 1.301-3.354 3.806-1.842h0l.503.301c24.24 13.878 52.188 19.163 85.719 14.589a158.76 158.76 0 0 0 13.795-2.507l-.053-.492c-1.464-13.906-1.472-19.983.637-26.959 2.87-9.489 9.836-16.698 22.368-22.431l3.451-1.525c15.48-6.823 27.774-11.945 40.526-16.921l.934-.364 4.358-1.684 1.449-.552c.523-.185 7.338-2.887 17.701-6.995l.003-.002.027-.01.005-.002.003-.001 94.768-37.296c6.047-2.326 13.371-3.099 22.352-2.635l.774.042c6.729.396 13.347 1.31 24.197 3.187l9.532 1.669c10.645 1.843 15.802 2.569 21.824 2.998l5.403.461c6.332.589 11.428 1.063 15.488-.648l10.622-4.429c11.347-4.706 21.931-9.097 31.753-13.979.674-4.368 2.395-7.593 5.092-9.717 4.161-3.276 10.05-3.331 15.157-1.345a2.5 2.5 0 0 1 1.424 3.236c-.162.416-1.202.225-2.674-.047-3.078-.567-8.043-1.483-10.813 2.084-3.083 3.968-4.106 10.047-1.377 22.017 1.978 8.675 14.802 23.425 20.218 23.425 6.039 0 7.451-5.862 8.252-9.187l.051-.208c-7.182.186-12.64-4.359-16.182-13.082l-.172-.432c-3.643-9.275-2.644-16.71 3.247-21.723.107-.091.221-.173.342-.245l.185-.099 20.811-10.996zm-33.243 52.683c-.253-.306-.503-.62-.75-.941a7.09 7.09 0 0 1-.262-.295l-.699-.844c-1.938-2.328-4.183-5.024-5.941-8.913l-.255-.567c-2.82-6.317-3.156-13.412-2.983-19.263l.026-.68-.149.076c-11.651 5.766-24.325 11.551-38.022 17.354l-1.717.725c-5.864 2.47-13.189 4.215-22.469 3.616l-.718-.049c-6.34-.452-11.674-1.21-22.857-3.152l-8.349-1.463c-23.536-4.075-35.314-4.711-45.02-1.082L202.932 387.91c-11.274 5.157-15.099 10.009-19.761 17.872-2.411 4.067-2.168 15.285-1.998 23.077v.002l.066 3.581c27.367-6.845 53.673-21.073 78.935-42.716a2.5 2.5 0 0 1 3.404.14 168.26 168.26 0 0 0 6.234 5.989l104.224-43.544c.286-.119.581-.181.873-.192a14.94 14.94 0 0 1 2.541-.918c9.088-2.416 16.345 1.514 21.36 11.19l9.084-6.626a2.5 2.5 0 0 1 3.818 1.152c8.291 22.405 5.875 37.757-7.776 45.164-13.767 7.47-25.739 1.311-35.072-17.36a2.5 2.5 0 0 1 .367-2.78c-2.225-9.039-2.638-16.241-1.124-21.456l-91.314 41.381c13.654 11.085 28.648 19.446 44.991 25.085.374-.357.778-.665 1.176-.883 13.766-7.54 47.682-16.349 56.06-18.524l1.572-.411c3.93-1.053-.097 2.62-1.283 3.167l-.152.064-49.502 19.063c14.726 4.194 30.494 6.29 47.313 6.29l2.851-.021 1.111-.722c10.587-6.881 28.287-18.386 31.36-21.284l1.434-1.356c10.192-9.89 17.778-19.378 24.399-27.659 7.264-9.087 13.368-16.722 20.481-21.843 5.531-3.982 7.535-4.892 12.245-7.03l4.481-2.063c12.494-5.871 26.682-9.271 40.001-12.462l1.035-.248zm-137.632 15.004c7.202-1.915 12.595 1.467 16.706 10.911l-10.632 8.425-10.976 4.33-.274-1.204c-3.006-13.624-1.047-20.807 5.176-22.462zm16.706 10.911l-10.613 8.417a2.48 2.48 0 0 1 .651-.16 2.5 2.5 0 0 1 .599.008c.466.063.908.256 1.272.561.239.2.443.446.597.733 2.505 4.51 4.442 5.585 6.408 4.482 2.082-1.167 2.736-5.556 1.215-13.397l-.129-.644zm-137.701 102.65c1.161-.747 9.175-4.657 2.038 2.692s-62.721 38.53-92.725 40.257c-28.919 1.664-54.595-10.414-76.934-26.221l-.74-.528-.148.191a35.69 35.69 0 0 1-3.049 3.413l-.449.43c-1.892 1.777-5.167 3.787-9.899 6.124-1.238.612-5.612 1.174-3.349-1.134s7.218-5.632 10.103-7.537c1.886-1.245 2.481-2.702 3.072-4.147.313-.766.625-1.529 1.127-2.255a2.5 2.5 0 0 1 3.556-.579c22.023 16.506 47.749 25.304 76.711 23.638 29.082-1.674 59.116-14.031 90.687-34.344zm171.048 15.94c1.015-.936 1.015-7.616 0-6.68-11.233 10.365-34.75 19.481-63.769 21.151-29.056 1.673-51.9-2.896-68.577-13.619-1.161-.747-6.909-2.722-3.455.75s42.289 21.589 72.319 19.861l.9-.053c29.589-1.806 50.45-10.216 62.582-21.41zm-20.511-123.301l-.151-.45-7.527 5.492.139.777c1.513 8.852.481 14.639-3.717 17.166l-.22.128c-4.376 2.454-8.495.721-11.938-4.321l-.152-.225-10.121 4.088.234.425c7.737 13.961 16.311 17.844 26.402 12.548l.326-.174c10.135-5.5 12.631-16.723 7.075-34.366l-.35-1.088zM113 158.5c0 1.93-1.57 3.5-3.5 3.5s-3.5-1.57-3.5-3.5 1.57-3.5 3.5-3.5 3.5 1.57 3.5 3.5z" fill="#00160a"/></svg>