<svg xmlns="http://www.w3.org/2000/svg" width="750" height="750" fill="none"  xmlns:v="https://vecta.io/nano"><path fill="#fff" d="M0 0h750v750H0z"/><g fill-rule="evenodd"><path d="M146.471 542.778c-89.758-62.269 17.741-144.782-8.519-243.447S48.083 53.554 299.029 105.973c254.26 53.113 415.521 121.503 377.411 333.343s-440.211 165.73-529.969 103.462z" fill="#fc9b64"/><path d="M536.056 628.072c-5.628-5.611-8.294-13.457-10.781-21.005-6.517 9.437-21.065 9.741-31.056 4.11s-16.733-15.464-23.906-24.411c-12.844-16.02-67.862-55.581-68.766-67.517-.48-6.33 17.929-17.854 17.929-17.854l-33.08-19.463s-17.156 13.161-27.02 14.726c-27.442 4.352-46.851 1.761-46.874 6.7-.084 17.87 108.033 108.53 73.556 107.819-51.743-1.067-146.248-101.779-176.861-109.782-12.82-3.351-100.75 1.963-100.75-19.321 0-28.586 78.539-48.254 78.539-48.254s-20.469-69.026 4.306-125.472c5.674-12.927 12.699-27.947 13.383-40.649.188-3.484 99.238-97.305 111.963-101.992a276.52 276.52 0 0 1 92.845-16.991c4.214-.039 124.389 16.991 178.429 106.19 9.766 16.12 54.13 135.835 9.087 210.931-7.106 11.847-6.235 26.551-1.322 39.594s10.954 27.551 5.386 40.329c-3.04-20.472-8.379-40.601-15.886-59.888-10.467 7.61-5.167 23.984 1.073 35.321l23.591 42.861c3.271 5.941 6.652 12.489 5.476 19.168-1.346 7.638-8.152 12.922-14.456 17.44l-43.178 30.942c-6.459 4.629-15.999 2.079-21.627-3.532z" fill="#fff"/><path d="M341.632 311.942c1.103-2.984 5.071-4.217 7.999-2.973s4.745 4.353 5.203 7.5-.237 6.347-1.133 9.399c-.817 2.783-1.803 5.517-2.951 8.181-.107.247-.25.524-.513.583-.28.063-.538-.155-.74-.359-4.975-5.04-7.974-11.981-8.235-19.059-.04-1.104-.012-2.236.37-3.272zm8.601.728c-.817-.7-1.87-1.158-2.945-1.126-2.509.076-4.26 2.813-4.204 5.322s1.393 4.788 2.69 6.937l2.787 4.616c.317.524.94 1.123 1.433.759.199-.146.276-.403.341-.641l1.141-4.194c.544-1.999 1.092-4.03 1.058-6.101s-.729-4.224-2.301-5.572h0zm-1.641 8.032c-.612.173-1.279.14-1.87-.091-1.148-.447-1.941-1.677-1.874-2.907s.987-2.367 2.176-2.688c1.802-.486 3.832 1.174 3.712 3.037a3.03 3.03 0 0 1-2.144 2.649z" fill="#ffb61d"/><path d="M381.438 613.19c2.058.271 1.298 3.465-.037 5.055-12.754 15.183-29.405 27.064-47.911 34.185-4.15 1.596-8.444 2.969-12.88 3.274-8.226.567-16.422-2.646-22.927-7.713s-11.463-11.879-15.503-19.068c-11.048-19.659-15.679-42.858-13.027-65.252.249-2.107 1.687-4.903 3.629-4.047-.563 7.487-.65 15.01-.261 22.508.382 7.365 1.232 14.75 3.347 21.815 1.958 6.541 4.97 12.712 8.111 18.775 3.229 6.231 6.65 12.445 11.313 17.691s10.715 9.509 17.6 10.869c8.632 1.705 17.491-1.269 25.449-5.021a128.41 128.41 0 0 0 43.097-33.071zm59.712-85.333l44.966-44.24c.84-.826 2.082-1.707 3.074-1.074 1.324.845.265 2.877-.851 3.981l-48.398 47.865c-1.162-.59-1.5-2.18-1.091-3.417s1.371-2.201 2.3-3.115h0zm-114.747-84.812l-2.741.474c-1.774-2.662-3.589-5.424-4.145-8.574s.485-6.815 3.281-8.369c3.163-1.758 4.117-6.082 3.109-9.558s-3.504-6.293-5.95-8.961c-2.483-2.709-6.466-5.586-9.415-3.391-1.922 1.431-4.799.622-6.519-1.046s-2.63-3.973-3.743-6.095c-2.105-4.015-5.174-7.637-9.189-9.742s-9.04-2.522-13.081-.468c-4.009 2.038-6.538 6.093-9.955 9.016s-9.06 4.477-12.139 1.199c-.783-.834-1.308-2.07-.863-3.123s2.172-1.416 2.724-.414c1.405 2.553 5.289 2.516 7.717.905s3.949-4.243 5.941-6.37c3.897-4.159 9.821-6.325 15.482-5.66s10.921 4.145 13.748 9.095c1.362 2.385 2.202 5.097 3.98 7.19s5.011 3.375 7.292 1.846c2.577-1.728 5.939.419 8.2 2.543 3.061 2.874 6.043 5.98 7.766 9.809s1.997 8.539-.255 12.082c-1.875 2.949-5.463 5.338-5.152 8.819.29 3.246 4.025 5.536 3.907 8.793zm39.567-146.167c5.488 2.569 10.37 6.678 13.191 12.04s3.395 12.022.866 17.528c-5.232 11.39-21.869 15.824-23.704 28.224-.467 3.158.169 6.441-.611 9.537-.54 2.139-1.721 4.049-2.666 6.042-2.028 4.277-2.985 9.056-2.762 13.784-2.115 1.145-4.601-1.293-4.871-3.682s.686-4.762.635-7.166c-.096-4.519-3.592-8.116-6.574-11.512-4.472-5.095-8.358-11.094-9.085-17.834-.234-2.172-.135-4.388-.623-6.517-.526-2.289-1.703-4.366-2.742-6.472-2.805-5.682-4.703-12.239-2.977-18.335s8.164-11.14 14.274-9.462c1.735.477 3.433 1.45 5.214 1.185 3.126-.467 4.387-4.196 6.567-6.486 3.906-4.105 10.736-3.277 15.868-.874m-26.571 59.242l10.394 13.674c3.974-4.184 2.33-10.953 3.538-16.596 1.646-7.687 8.522-12.905 14.479-18.034s11.873-12.146 10.535-19.892c-1.075-6.225-6.507-10.648-11.715-14.222-2.936-2.015-6.325-4.042-9.827-3.394-3.541.654-5.967 3.794-8.518 6.335s-6.398 4.749-9.591 3.084c-4.493-2.344-10.213 1.654-11.481 6.56s.555 10.04 2.556 14.695 4.259 9.481 3.879 14.534c-.37 4.917 2.767 9.33 5.751 13.256zM63.031 251.418c-.225-.609.844-.781 1.417-.475-.025.634-.999.955-1.395.459l-.022.016zm415.563 249.636c1.176.164 1.801 1.612 1.534 2.769s-1.139 2.064-1.974 2.908l-20.258 20.476c-.498.504-1.084 1.045-1.793 1.022-.953-.03-1.576-1.132-1.46-2.078s.739-1.742 1.342-2.481a211.77 211.77 0 0 1 20.15-21.425c.692-.64 1.525-1.321 2.459-1.191h0z" fill="#00160a"/><g fill="#ffb61d"><path d="M280.045 402.347c3.72.337 6.581 3.833 7.22 7.514s-.509 7.443-2.065 10.839a45.22 45.22 0 0 1-2.948 5.421c-.794 1.249-1.806 2.563-3.267 2.805-2.439.405-4.152-2.28-5.093-4.566-1.325-3.218-2.54-6.481-3.644-9.781-.542-1.621-1.063-3.326-.786-5.012.423-2.577 2.614-4.506 4.909-5.753 1.742-.946 3.7-1.646 5.674-1.467M276.55 421.3c.285.445.589.901 1.037 1.183a1.87 1.87 0 0 0 1.246.269c1.106-.153 1.817-1.219 2.382-2.183 1.479-2.521 2.998-5.168 3.164-8.086s-1.492-6.166-4.353-6.768c-3.347-.704-6.466 2.65-6.75 6.059s1.427 6.646 3.274 9.526z"/><path d="M279.885 409.264a3.76 3.76 0 0 1 2.154 1.824 3.75 3.75 0 0 1 .33 2.504c-.425 1.938-2.615 3.29-4.538 2.803s-3.204-2.72-2.655-4.626 2.821-3.115 4.709-2.505zm-.426 4.022c.7-.369.075-1.711-.658-1.411-.567.075-.943.789-.684 1.299a.95.95 0 0 0 1.454.214l-.112-.102z"/></g><g fill="#00160a"><path d="M476.788 445.936a49.08 49.08 0 0 1-5.561-7.26c-.518-.827.556-1.903 1.524-1.774s1.678.94 2.295 1.696l6.447 7.907c-.247.941-1.434 1.367-2.374 1.117s-1.67-.973-2.331-1.686h0zm70.808 122.128c.023.308-.09.607-.207.893a23.6 23.6 0 0 1-5.135 7.703c-3.498 3.492-8.238 6.079-10.111 10.653-.443 1.083-2.098 1.24-2.958.446s-.978-2.157-.597-3.264 1.168-2.019 1.937-2.901l7.521-8.623c1.921-2.203 3.926-4.47 6.588-5.678 1.095-.497 2.869-.428 2.962.771h0zm-68.253-134.097l7.423 8.722c.415.488.855 1.043.827 1.684-.044.996-1.267 1.59-2.237 1.358s-1.702-1.007-2.353-1.762c-2.096-2.432-3.974-5.052-5.603-7.819-.635-1.079-.882-2.965.359-3.126.637-.083 1.167.454 1.584.943h0zm-28.498 16.205c-.376-.528-.765-1.217-.447-1.783.525-.933 1.95-.209 2.661.592 2.514 2.836 4.654 6.002 6.347 9.393-1.613.816-3.327-.845-4.375-2.318l-4.186-5.884zm2.229 8.348c1.007 1.047 2.025 2.768.977 3.774-1.067 1.022-2.773-.131-3.716-1.269-2.28-2.753-4.262-5.752-5.902-8.928 1.052-.903 2.611.148 3.572 1.148l5.069 5.275zm2.743-10.307c-.455-.67-.883-1.59-.389-2.232.705-.917 2.138-.075 2.927.771l6.868 7.361c-.102.887-1.141 1.418-2.024 1.287s-1.619-.727-2.281-1.326a32.79 32.79 0 0 1-5.101-5.861h0zm14.433-5.442l4.277 5.457c.565.721 1.162 1.647.793 2.486-.355.809-1.478 1.022-2.29.674s-1.381-1.083-1.911-1.789l-4.422-5.99c-.323-.443-.661-.941-.612-1.487.082-.909 1.246-1.381 2.116-1.103s1.485 1.034 2.049 1.752h0zm-1.074 8.389c.295.322.611.697.579 1.133-.042.581-.724.942-1.3.855s-1.053-.48-1.487-.87c-2.845-2.559-5.243-5.613-7.053-8.984.356-.927 1.756-.298 2.428.433l6.833 7.433zm27.632-16.404c.222.256.456.548.442.886-.02.51-.627.83-1.13.744s-.911-.446-1.286-.793c-2.679-2.475-5.241-5.076-7.676-7.792.861-1.157 2.679-.229 3.724.764 2.072 1.969 4.05 4.035 5.926 6.191h0zm-8.488 2.474l-4.494-6.156c-.275-.376-.564-.833-.417-1.275.291-.87 1.611-.482 2.321.097 2.253 1.838 4.165 4.093 5.611 6.615.281.49.551 1.069.352 1.597-.252.672-1.173.87-1.834.588s-1.116-.887-1.539-1.466h0zm11.955-7.54l-4.44-4.774c-.527-.567.111-1.573.881-1.656s1.474.404 2.084.881l3.244 2.78c.574.54 1.157 1.13 1.373 1.887s-.08 1.72-.825 1.978c-.857.295-1.7-.432-2.317-1.096h0zm-2.872 3.151l-5.879-6.547c-.325-.394-.669-.879-.53-1.371.156-.555.883-.772 1.429-.587s.946.646 1.318 1.086l5.136 6.078c.463.548.919 1.41.393 1.898s-1.362-.039-1.867-.557h0zm97.436 129.848c2.312-.714 8.165-2.302 10.477-3.015 1.036-.319 2.576-.361 2.77.706.16.878-.849 1.475-1.695 1.759-2.335.785-8.291 2.205-10.737 2.5-.87.105-2.135-.219-1.958-1.078.101-.494.661-.724 1.143-.872zm-258.316-96.683c3.66.053 7.987.905 9.447 4.262 1.371 3.153-.785 6.943-3.809 8.579s-6.626 1.677-10.064 1.673c-46.91-.06-93.818-1.193-140.677-3.396-2.92-.137-3.196-4.351-2.529-7.197.398-1.698.846-3.489 2.071-4.731 1.763-1.787 4.559-1.909 7.069-1.917 33.686-.108 67.433-.214 100.977 2.885 5.313.491 10.632 1.063 15.967 1.011 7.195-.07 14.353-1.274 21.548-1.169m5.253 8.515c.786-1.534-.371-3.485-1.944-4.189s-3.382-.522-5.097-.353c-21.99 2.163-44.13-.333-66.188-1.623-16.033-.937-32.096-1.235-48.153-1.533l-20.082-.373c-2.135-.04-4.475-.012-6.115 1.356s-1.696 4.591.34 5.235c.368.117.759.137 1.145.155a2641.17 2641.17 0 0 0 141.5 3.084c1.73-.009 3.805-.22 4.594-1.759h0z"/><path d="M306.575 503.923c4.183 9.157 13.195 15.936 23.153 17.416 4.685.697 7.884 4.958 10.552 8.872 2.773 4.067 4.807 10.962.223 12.758l53.373 58.856c2.066 2.279 4.074 6.083 1.678 8.012-.89.717-2.11.83-3.252.868-14.657.491-28.488-6.37-41.173-13.73a410.52 410.52 0 0 1-52.132-35.896c-11.995-9.705-29.228-12.481-43.664-7.035-7.489 2.826-16.878-2.934-17.752-10.891s7.04-15.618 14.964-14.485c-11.913-17.677-33.22-28.601-54.527-27.957a287.73 287.73 0 0 1-76.536-7.999c-2.196-.533-4.554-1.2-5.931-2.991-2.747-3.573.134-8.651 3.153-11.997 22.241-24.648 56.462-37.945 89.51-34.78 1.408.135 2.174-1.575 2.504-2.951l25.202-105.032c1.013-4.222 7.439-4.805 10.623-1.854s3.884 7.657 4.251 11.983c2.736 32.249-2.042 66.967 13.989 95.082.747 1.31 1.59 2.651 2.902 3.394 1.292.733 2.848.777 4.334.804l89.046 1.577c3.698.066 8.239-.374 9.733-3.758l11.485-26.011c1.218-2.758 2.898-5.888 5.879-6.342 4.269-.651 6.971 4.712 6.832 9.028s-1.59 8.903.312 12.781c6.973-7.412 14.065-14.919 22.784-20.166s19.43-8.035 29.208-5.215l-25.933 41.233c7.22 4.777 7.789 16.86 1.05 22.295-2.877 2.321-.594 6.9 1.789 9.726l22.403 26.554c-6.374 2.955-13.797-.087-20.064-3.262a400.45 400.45 0 0 1-32.753-18.579c-5.153-3.252-10.832 2.845-15.509 6.751-7.424 6.2-17.674 7.435-27.297 8.416l-44.409 4.525zm25.821-19.24c9.094.498 18.361 1.128 27.185-1.127 9.036-2.308 17.259-7.682 23-15.031 1.394-1.784 3.836-2.289 6.068-2.673 7.705-1.326 15.819-2.622 23.18.014 3.32 1.189 7.372-.172 9.301-3.125s1.547-7.211-.876-9.774c-2.623-.072-3.101 3.65-4.492 5.875-1.828 2.923-5.814 3.399-9.257 3.572l-37.892 1.905c-3.066.154-7.29-.738-7.198-3.807.04-1.35 1.027-2.466 1.993-3.409 3.392-3.311 7.262-6.129 11.454-8.34-51.285.389-102.577-.188-153.84-1.729-25.208-.758-52.089-1.332-73.568 11.883-2.005 1.234-3.573 4.872-1.247 5.231l20.556 3.171c.816.126 1.689.28 2.28.857 1.77 1.729-.71 4.51-2.991 5.471-9.413 3.962-20.628 3.358-29.56-1.594-2.024-1.122-4.426-2.487-6.488-1.436-2.491 1.269-2.149 5.274-.036 7.105s5.124 2.088 7.914 2.261l75.209 4.641c7.047.434 14.116.869 21.162.43a840.12 840.12 0 0 1 98.143-.371zm36.595 97.187a222.33 222.33 0 0 0-29.782-33.329c-3.606-3.297-6.782-7.03-9.948-10.752l-41.528-48.822c-1.382-1.624-3.771-1.838-5.903-1.905-18.181-.577-36.422.775-54.32 4.023-1.323.24-2.751.55-3.625 1.573-2.026 2.37.506 5.835 2.881 7.857a1085.82 1085.82 0 0 0 73.821 57.554c4.678 3.333 9.426 6.654 14.709 8.909l29.9 12.769c7.626 3.257 16.716 6.441 23.795 2.123m-119.02-179.675c-.366-4.754-.368-9.591-1.675-14.177-2.354-8.26-8.63-14.747-14.877-20.642-.485-.458-1.124-.95-1.75-.721-.57.209-.776.892-.906 1.484l-13.968 63.609c-.878 4.001-1.762 8.059-1.572 12.152l48.97.617c-8.133-12.646-13.068-27.331-14.222-42.322zm191.792 7.041c-10.139-.866-20.582 2.861-27.882 9.951-13.371 12.986-27.65 25.038-42.697 36.038-2.061 1.506-4.268 3.175-4.967 5.629l37.821-1.706c3.324-.15 7.238-.648 8.828-3.572a458.15 458.15 0 0 1 28.897-46.34zm-323.586 75.07c-.343.735-.648 1.553-.457 2.341.337 1.394 1.965 1.974 3.359 2.312 28.187 6.84 57.43 7.721 86.423 8.569 2.885.085 5.878.149 8.527-.996s4.851-3.87 4.42-6.724a423 423 0 0 0-56.894-4.002c-11.398-.032-23.12.346-33.805-3.621-2.578-.957-5.495-2.876-5.167-5.606a20.03 20.03 0 0 0-6.406 7.727zm268.784-5.09c-1.012-2.194-3.861-3.006-6.224-2.499s-4.368 2.003-6.349 3.386c-4.573 3.192-9.518 6.009-14.945 7.296-4.731 1.121-9.654 1.041-14.515.955l-53.244-.943c3.952 5.897 9.369 12.522 16.426 11.747 13.805-1.516 27.789-1.154 41.529-3.181s27.66-6.785 37.322-16.761zm41.062 15.182c.646-.087 1.399-.303 1.602-.922.17-.52-.141-1.064-.444-1.519-5.112-7.692-11.408-14.512-17.675-21.295-.956-1.035-1.953-2.1-3.252-2.646-1.344-.565-2.859-.511-4.313-.403a69.82 69.82 0 0 0-17.469 3.598c-.46.158-.995.412-1.047.896-.041.377.241.704.506.974 5.923 6.021 13.332 10.323 20.644 14.55 6.617 3.826 13.874 7.788 21.448 6.767zm-168.539 38.678c-.552-.428-1.14-.87-1.833-.96-.562-.073-1.124.097-1.665.265l-3.758 1.166c-1.228.381-2.761 1.51-2.053 2.583a16.31 16.31 0 0 1 2.46 11.488c-.209 1.283 1.637 1.743 2.934 1.651l20.117-1.42c.699-.05 1.643-.404 1.48-1.086l-17.682-13.687zm114.898-90.686c-.471 1.232.785 2.57 2.097 2.706s2.56-.527 3.713-1.168c4.155-2.313 8.636-4.999 10.205-9.488.512-1.462.67-3.021.824-4.563l.793-7.937c.059-.587.107-1.223-.204-1.725s-1.136-.705-1.481-.226c-1.394 1.936-3.44 3.394-5.726 4.078-.989.296-2.051.466-2.884 1.076-.992.725-1.479 1.937-1.919 3.085l-5.418 14.162zm-41.317 84.781c-1.81-3.376-6.798-4.511-9.891-2.249 3.987 3.115 6.236 7.922 9.62 11.684 1.164 1.294 2.678 2.546 4.416 2.432s3.174-2.436 1.943-3.668a35 35 0 0 1-6.088-8.199zm-88.644 9.209c-2.692 2.628-1.775 7.077-.664 10.671.374 1.212 1.568 2.719 2.559 1.927.336-.269.456-.719.557-1.138.497-2.065.997-4.178.775-6.29s-1.31-4.258-3.227-5.17z"/><path d="M542.056 633.072c-5.628-5.611-8.294-13.457-10.781-21.005-6.517 9.437-14.97 16.136-24.96 10.505s-22.829-21.859-30.002-30.806c-12.844-16.02-28.102-30.101-45.099-41.621 9.077 9.959 14.506 23.174 15.05 36.638l20.658-.215c-23.151 7.889-47.952 10.896-72.317 8.766 13.239-11.133 23.592-25.67 29.785-41.821-1.382-4.371-7.949-3.358-11.783-.848s-8.797 5.697-12.491 2.983c-4.547-3.34-4.234-13.803-9.634-12.167-14.019 4.248-30.638-4.191-35.481-18.016l-9.92 6.201c-1.592-5.122 5.78-9.079 10.749-7.059s7.88 7.045 11.325 11.156 8.974 7.739 13.891 5.597c9.163-3.991 21.215 3.217 22.033 13.178 7.106-5.702 16.852-7.963 25.742-5.971a187.42 187.42 0 0 0-18.907-23.184 74.79 74.79 0 0 1 19.083-17.818c-3.602 6.81-8.596 12.881-14.583 17.73l92.125 90.319c1.933 1.895 4.149 3.915 6.856 3.952 2.966.041 5.358-2.295 7.38-4.465l43.238-46.399c3.754-4.03 7.705-8.472 8.269-13.951.707-6.881-4.097-12.983-8.683-18.161-18.455-20.834-38.09-40.622-58.78-59.238-9.075-8.165-21.039-16.655-32.455-12.332-13.775 5.217-17.053 25.948-31.203 30.043l12.692-17.445c-8.388-6.068-18.879-19.61-19.425-29.948 6.733-6.134 15.035-10.779 21.92-14.34-6.885-16.212-6.068-19.583 3.14-21.797s17.186-4.408 25.648-7.238c23.462-7.847 34.66-45.051 14.967-60.504-10.834-8.501-92.032-91.95-126.895-122.717 2.64 11.776-12.873 22.879-23.168 16.581 1.975 6.788-2.773 15.003-9.785 15.898s-13.854-6.88-11.399-13.51c2.113-5.706 8.873-8.067 12.798-12.717s.501-14.868-4.834-11.941c-2.817 11.34-19.401 16.171-27.868 8.119-2.981-2.835-6.886-3.532-10.878-2.862-4.891.82-13.352 2.719-16.97 6.226-5.668 5.495-6.947 13.521-13.696 17.25a20.97 20.97 0 0 1-3.394 1.511c-8.663 2.952-20.792-5.621-16.294-13.592-24.65 22.728-41.571 53.691-47.388 86.711 12.865 3.668 15.308 20.564 15.272 33.942-14.514 3.683-.861 31.387-13.413 39.55-14.31 9.307-10.331 30.948-4.665 47.049-14.505-31.216-16.25-68.14-4.754-100.585l-3.409 61.752c9.733-1.424 13.664-13.285 14.469-23.088s1.417-21.339 9.659-26.707c-3.077-7.843-4.339-16.392-3.661-24.79l-10.746-3.469c-2.152 15.155-18.985 22.61-32.866 29.063-14.986 6.967-29.084 15.839-41.848 26.335-13.691 11.259-26.729 26.738-25.213 44.398 1.458 16.981 16.091 29.966 31.453 37.347-16.45-.037-30.57-14.671-33.222-30.907s4.423-32.937 15.483-45.115 25.725-20.456 40.597-27.489c19.475-9.21 43.097-21.155 43.824-42.686.605-17.948 20.291-35.538 10.86-50.821-13.246-21.467-20.634-46.509-21.162-71.728-.261-12.441 2.01-26.525 12.209-33.656 5.078-3.55 11.395-4.789 17.55-5.496 22.826-2.621 46.342 1.036 67.294 10.467 12.366 5.565 25.87 13.28 38.595 8.593a276.52 276.52 0 0 1 92.845-16.991c4.214-.039 7.713-3.133 10.647-6.159 11.548-11.905 21.184-25.681 33.751-36.505s29.283-18.616 45.527-15.267c17.005 3.507 29.7 18.651 35.255 35.101s5.24 34.223 4.865 51.581c-.672 31.088 38.321 48.018 48.384 77.439 5.933 17.346 25.508 25.385 43.113 30.503s37.324 10.787 46.398 26.718c8.451 14.838 4.272 34.276-5.705 48.134s-24.748 23.354-39.159 32.515c-23.331 14.833-16.782 52.769-35.56 73.061-9.466 10.229-6.235 26.551-1.322 39.594s10.954 27.551 5.386 40.329c-3.04-20.472-8.379-40.601-15.886-59.888-10.467 7.61-5.167 23.984 1.073 35.321l23.591 42.861c3.271 5.941 6.652 12.489 5.476 19.168-1.346 7.638-8.152 12.922-14.456 17.44l-43.178 30.942c-6.459 4.629-15.999 2.079-21.627-3.532zm30.717-131.68c-1.263-1.421-3.573-.727-5.298.069l-5.186 2.396c-.379.175-.798.354-1.2.244-.759-.206-.886-1.33-.41-1.955s1.284-.876 2.032-1.119c1.593-.517 3.147-1.152 4.647-1.899.857-.426 1.777-.99 2.01-1.919s-.833-2.057-1.621-1.513c-2.321 1.599-4.931 2.776-7.666 3.456-.82.203-2.099-.053-1.906-.876.074-.315.367-.522.641-.695 2.44-1.534 5.103-2.713 7.879-3.489 1-.279.751-1.961-.201-2.374s-2.041.005-2.993.42l-6.903 3.009c-.494.216-1.048.498-1.18 1.021-.118.468.153.938.413 1.345l5.018 7.856c.255.399.544.826.994.972.489.159 1.012-.061 1.478-.279 3.185-1.486 6.336-3.044 9.452-4.67zM415.558 216.53c-5.416.093-9.484-6.065-8.476-11.387s5.793-9.306 10.975-10.884c7.042-2.144 15.45-.889 21.063-5.652 2.521-2.139 4.06-5.212 6.357-7.591 5.005-5.186 13.711-6.284 19.847-2.501 1.377-3.615-2.699-7.11-6.513-7.754s-7.928.125-11.442-1.493c-6.173-2.842-13.441.809-18.382 5.475s-8.991 10.545-15.08 13.562-15.302 1.334-16.976-5.252c-.522-2.052-.586-4.771-2.588-5.463-3.157-1.092-4.799-4.777-4.611-8.112s1.786-6.404 3.35-9.356c-6.186-.311-12.398-.119-18.553.574-1.477.166-3.354.79-3.351 2.275.007 3.071-2.844 5.274-5.405 6.967l-16.266 10.752c.17 3.579 5.448 4.436 8.539 2.623s5.269-5.054 8.602-6.371c1.78-.704 3.734-.79 5.647-.868l9.799-.399c4.186-.17 9.833.893 10.055 5.076.181 3.431-3.628 5.435-6.067 7.856-5.551 5.508-5.531 16.17-12.816 19.014-2.589 1.01-3.285 4.596-2.15 7.133s3.504 4.26 5.745 5.904c39.108 28.695 107.236 102.675 108.727 102.872s3.239-.872 3.156-2.373c-.216-3.882-.425-7.835.525-11.605s3.254-7.399 6.808-8.976c3.276-1.452 8.042-1.781 8.751-5.294 1.586-7.857 9.452-13.933 17.456-13.484 3.932.221 8.271 1.722 11.544-.47-2.64-2.503-6.54-3.02-9.812-4.609s-6.15-5.612-4.195-8.68c2.887-4.53-1.319-10.454-.454-15.757.367-2.25 1.638-4.242 2.982-6.084a61.21 61.21 0 0 1 16.855-15.718c1.522-.955 1.903-2.967 2.143-4.748l1.736-12.899c.404-3 .677-6.442-1.381-8.661-6.699-7.221-17.852-7.458-27.697-7.136s-20.969.194-27.789-6.913c-2.117-2.206-5.982-1.456-8.278.563s-3.565 4.926-5.274 7.461c-5.339 7.919-15.675 12.116-25.024 10.161-5.007-1.047-10.055-3.686-14.971-2.273-6.554 1.884-10.293 10.379-17.111 10.495zm188.149 194.915c.301 1.093.741 2.341 1.813 2.709.86.295 1.787-.108 2.606-.503l8.159-3.929c1.396-.673 2.964-1.565 3.212-3.094 5.036-31.015 3.577-63.068-4.254-93.497-1.852-7.196-4.061-14.317-7.005-21.139-3.76-8.715-8.687-16.873-13.745-24.905a773.24 773.24 0 0 0-22.747-34.09c-1.462 2.281-1.898 5.043-2.641 7.648s-1.991 5.305-4.384 6.575-6.068.192-6.492-2.483c-.917-5.784-7.124-10.158-12.88-9.075-1.237.233-1.647 1.772-1.801 3.022l-4.202 34.084c-.102.826-.145 1.809.505 2.329.541.433 1.312.337 2.005.326 3.917-.058 7.333 4.033 6.577 7.877s-5.469 6.335-9.072 4.795c-1.555-.664-2.773 1.444-3.162 3.089l-7.059 29.796c-.694 2.93 1.836 5.695 4.557 6.982s5.831 1.753 8.328 3.435c6.254 4.212 5.985 13.792 11.042 19.385 4.12 4.556 11.744 5.385 16.747 1.82 4.476-3.189 6.421-9.014 6.424-14.51.001-3.748 2.329-7.397 5.727-8.978s7.689-1.012 10.557 1.4c2.794 2.35 4.06 6.001 5.204 9.467.505 1.529 1.01 3.197.468 4.713-.886 2.479-3.933 3.213-6.424 4.064a21.6 21.6 0 0 0-11.168 8.817c-1.26 1.995-2.115 4.793-.554 6.563l11.437 12.978c1.994 2.262 4.048 4.633 4.848 7.54l7.374 26.789zM215.333 269.236c5.975-11.151 12.008-22.39 20.125-32.094 7.108-8.498 15.67-15.644 24.219-22.691l33.995-27.602c4.745-3.795 9.564-7.614 15.096-10.127-16.585-7.308-33.276-14.653-50.883-18.946s-36.363-5.412-53.737-.253c-1.674.497-3.355 1.062-4.8 2.042-2.44 1.656-3.981 4.337-5.137 7.05-4.544 10.66-4.289 22.739-2.811 34.233a175.44 175.44 0 0 0 23.933 68.388zm374.463 330.936c-.157 1.619-1.904 3.142-3.371 2.439-.693-.333-1.115-1.038-1.496-1.705l-17.549-30.638c-3.775 1.421-5.589 5.971-5.165 9.982s2.563 7.607 4.65 11.058l9.579 15.833c-1.679 1.729-4.382-.569-5.625-2.633l-13.293-22.067-25.387 26.112 16.533 25.844c1.299 2.03 4.08 2.678 6.436 2.168s4.391-1.94 6.355-3.336l44.308-31.513c1.123-.799 2.325-1.71 2.655-3.048.344-1.399-.372-2.818-1.066-4.081a2814.92 2814.92 0 0 0-106.875-178.466c-1.113-1.711-2.52-3.602-4.557-3.737-1.358-.09-2.617.65-3.776 1.363l-53.313 32.808c-.723.444-1.501.959-1.743 1.772-.286.961.282 1.949.829 2.789 5.462 8.392 11.228 16.585 17.283 24.559 7.156-7.702 15.669-15.997 26.179-15.736 9.073.225 16.559 6.825 23.168 13.046l11.598 10.917a200.68 200.68 0 0 0-21.537-32.351c-.354-1.693 2.627-1.23 3.776.062 11.447 12.877 17.748 29.799 29.802 42.109l36.955 37.738c5.233 5.343 10.785 11.38 11.197 18.846.377 6.819-3.666 13.023-7.73 18.511a230.61 230.61 0 0 1 19.594 26.835c.862 1.38 1.742 2.9 1.586 4.52zM459.337 161.526c5.188 1.028 10.381 2.057 15.47 3.494 13.109 3.702 25.296 10.035 37.377 16.326 10.543 5.49 21.145 11.017 30.608 18.211 1.029-25.717.009-51.253-8.548-75.527-2.467-7-8.427-14.548-14.225-19.182-6.807-5.441-16.257-6.398-24.884-5.164-15.07 2.156-28.795 10.227-40.1 20.422s-20.471 22.496-29.559 34.709l33.861 6.711zm151.386 124.828c14.561 37.148 19.316 78.09 13.657 117.586 18.478-10.59 34.993-24.591 48.464-41.087 6.712-8.221 12.933-17.896 12.496-28.5-.36-8.714-5.317-16.758-11.863-22.522s-14.585-9.532-22.664-12.817a262.06 262.06 0 0 0-40.09-12.66zm-28.555 63.516a66.85 66.85 0 0 1 10.918-6.511c-.01-2.447-.036-4.974-1.018-7.216s-3.186-4.138-5.627-3.97c-2.566.177-4.502 2.521-5.317 4.961s-.828 5.07-1.392 7.58c-1.559 6.941-7.71 12.607-14.755 13.591s-14.513-2.779-17.914-9.028c-2.741-5.035-3.152-11.551-7.519-15.266-2.419-2.058-5.638-2.847-8.729-3.575-.718-.168-1.482-.336-2.179-.097-1.122.384-1.648 1.637-2.044 2.754l-7.941 22.454c-.979 2.768-1.784 6.307.404 8.266 20.207 18.084 28.432 46.847 48.983 64.54.608.524 1.358 1.071 2.139.885a118.56 118.56 0 0 0 28.206-10.637c.708-.376 1.447-.792 1.853-1.483.412-.701.41-1.564.368-2.376-.293-5.592-1.956-11.108-4.802-15.931-1.346-2.281-2.998-4.533-3.255-7.169-.219-2.251.617-4.559.083-6.756-.437-1.794-1.722-3.241-2.964-4.608l-10.527-11.587c-1.736-1.911-3.539-3.948-4.071-6.474-1.036-4.921 3.046-9.372 7.1-12.347zM362.234 236.16c4.14-2.49 6.649-7.457 6.196-12.267-.661-7.018-6.705-12.133-12.285-16.442-9.142-7.059-30.048-24.211-39.239-27.898s-49.858 32.588-63.989 46.496c-.714.702-1.458 1.468-1.657 2.45s-4.517 11.542 4.177 14.109 9.627.589 13.179-2.567 5.62-7.633 7.289-12.081c1.425-3.8 5.735-5.618 9.711-6.428s8.262-1.112 11.551-3.489c3.425-2.475 8.209-2.331 12.113-.713s7.128 4.497 10.271 7.324c2.625 2.361 6.869-.279 8.487-3.418s2.298-7.01 5.128-9.121c4.047-3.019 10.257-.317 12.749 4.074 3.544 6.244 1.038 15.16-5.239 18.645-3.638 2.019-8.961 3.373-9.106 7.531-.072 2.067 1.371 3.885 2.979 5.187 2.885 2.333 7.583 3.441 10.041.661 3.503-3.962-.409-12.334 4.443-14.439 4.284-1.858 9.2 4.794 13.201 2.386zm110.623-44.321c1.451-2.251 2.906-4.717 5.327-5.865 3.093-1.466 6.809-.301 9.743 1.462s5.556 4.123 8.775 5.289c3.276 1.187 6.866 1.027 10.346.851l17.365-.876c-34.989-20.273-74.345-34.49-114.78-34.89-3.409-.033-6.895.044-10.094 1.223s-6.103 3.662-6.922 6.97c-1.249 5.039 3.335 10.424 8.523 10.585-2.71 1.984-2.293 6.592.289 8.741s6.446 2.131 9.546.838 5.611-3.653 8.049-5.964l13.612-12.899c2.852-2.702 7.293-2.817 11.147-2.054s7.627 2.239 11.555 2.143c8.247-.2 15.552 8.267 14.145 16.396-3.701-3.491-9.086-5.109-14.098-4.236s-9.534 4.214-11.839 8.751c-1.868 3.677-6.038 5.621-10.093 6.377s-8.244.599-12.284 1.434-8.158 2.961-9.81 6.74.506 9.17 4.614 9.551c4.784.444 7.577-5.174 11.601-7.799 3.83-2.498 8.829-2.171 13.297-1.2s8.936 2.503 13.492 2.109c7.917-.685 14.189-6.997 18.494-13.677zm128.131 230.376l-27.503 10.605c-1.276.491-2.828 1.748-2.062 2.88 8.745 12.906 15.477 27.174 19.877 42.13.428 1.456 2.638.366 3.501-.882 8.018-11.593 14.411-24.308 18.934-37.658.818-2.416 1.581-5.027.879-7.479-1.103-3.854-5.246-5.797-8.299-8.396-.843-.718-1.696-1.548-2.791-1.708-.863-.125-1.722.194-2.536.508zM495.226 307.577c-4.211 4.472-.673 12.048-2.837 17.797-.48 1.274-1.254 2.618-.812 3.906.22.642.714 1.145 1.193 1.625l4.492 4.502c1.176 1.178 3.083 2.398 4.308 1.272 5.036-4.632 11.138-8.1 17.695-10.056 1.888-.564 3.931-1.073 5.249-2.538 1.162-1.292 1.537-3.089 1.868-4.795l5.516-28.662c.143-.746.28-1.546-.024-2.241-.322-.738-1.067-1.19-1.794-1.536-7.376-3.514-17.295.086-20.701 7.513-1.155 2.52-1.689 5.439-3.63 7.419-2.829 2.886-7.753 2.853-10.523 5.794zm-147.065-122.18c-1.426-1.294-2.901-2.918-2.76-4.839.149-2.047 2.045-3.458 3.763-4.582l18.259-11.942c-.148-1.182-1.805-1.307-2.977-1.094a216.99 216.99 0 0 0-45.944 13.746 440.26 440.26 0 0 1 47.186 33.563c1.817-4.124 6.493-6.154 9.261-9.71 3.497-4.492 3.758-11.163 8.059-14.893 2.11-1.831 5.245-3.1 5.667-5.861l-11.076.077c-4.491.032-9.272.148-13.004 2.647-3.256 2.181-5.759 6.148-9.677 6.26-2.582.074-4.845-1.636-6.757-3.372zm184.06 245.611l8.597 15.413c-5.25-16.702-11.51-33.087-18.735-49.034-.256-.567-.55-1.172-1.1-1.463-.678-.359-1.504-.122-2.231.121l-61.063 20.417c-.619.206-1.289.453-1.621 1.015-.399.674-.16 1.531.107 2.267a47.17 47.17 0 0 0 4.645 9.395l38.296-22.283c1.965-1.143 4.034-2.318 6.306-2.404 1.879-.071 3.706.619 5.386 1.466 9.973 5.03 15.972 15.335 21.413 25.09zm-92.415 138.993c-2.566-5.48-6.969-9.967-12.023-13.293-6.207 11.53-13.33 22.568-21.28 32.975-.608.796-.832 2.424.168 2.354l29.079-2.044c1.945-.137 4.284-.546 4.999-2.361 2.218-5.63 1.623-12.151-.943-17.631zm146.347-80.846c.784-1.202 1.583-2.438 1.902-3.838.42-1.852-.045-3.779-.544-5.611-3.844-14.089-9.893-27.536-17.442-40.037-.879-1.455-1.825-2.946-3.256-3.864s-3.488-1.086-4.736.067c-1.668 1.542-1.035 4.264-.275 6.404l18.054 50.866c.359 1.01 1.175 2.253 2.175 1.865.39-.151.642-.521.871-.87l3.251-4.982zm-60.401-215.65c1.742 1.47 4.054 2.026 6.275 2.538 1.781.41 2.834-1.912 3.142-3.714 2.059-12.03 3.382-24.172 4.703-36.306-1.01-.429-2.082.396-2.87 1.16l-8.494 8.241c-1.971 1.912-4.032 3.978-4.657 6.652-1.19 5.089 3.148 10.89.406 15.339-1.195 1.94-.247 4.621 1.495 6.09zm-6.166 96.237c-.68-.764-1.414-1.552-2.387-1.867s-2.242.042-2.58 1.007l-9.043 25.869c-.286.819-.094 2.199.739 1.953 5.084-1.5 9.774-4.155 14.88-5.581s11.075-1.408 15.154 1.977a138.48 138.48 0 0 0-16.763-23.358zm43.545-126.09l4.588-12.444c.296-.804-.291-1.641-.842-2.297-5.459-6.503-10.964-13.051-17.574-18.381-.281-.227-.6-.463-.961-.444-.687.037-.961.891-1.058 1.572l-2.469 17.351c-.24 1.685 1.313 3.15 2.941 3.649s3.38.359 5.054.671c3.086.574 5.819 2.783 7.028 5.681.767 1.838 1.334 4.283 3.293 4.642zm-48.807 111.722c2.891-7.392 5.542-14.878 7.948-22.442.162-.509.323-1.062.152-1.568-.459-1.351-2.459-1.001-3.734-.362-5.013 2.51-9.833 5.405-14.404 8.65-.568.402-1.188.91-1.209 1.606-.017.527.322.99.646 1.405a256.34 256.34 0 0 0 10.601 12.711zm42.402 121.845c-.541-.591-1.431-.682-2.232-.669-1.813.03-3.619.399-5.297 1.083-.826.337-1.647.755-2.537.801s-1.89-.418-2.109-1.283a14.97 14.97 0 0 1 8.101-2.762c1.286-.047 1.323-2.23.194-2.849s-2.521-.166-3.722.296l-5.958 2.289c-.578.222-1.173-.477-1.089-1.09s.581-1.08 1.074-1.456c1.786-1.365 3.918-2.273 6.139-2.616 1.059-.163 1.23-1.806.456-2.547s-1.964-.789-3.033-.734c-3.112.163-6.196.837-9.091 1.988l7.562 13.201c.666 1.131 1.389 2.314 2.542 2.94a12.74 12.74 0 0 1 8.543-4.703c.797-.085.999-1.298.457-1.889zm42.522 79.92c-1.902.486-3.787 1.04-5.65 1.661-.51.17-1.099.436-1.186.966-.051.316.101.625.249.909l3.282 6.308c.444.853 1.338 1.855 2.167 1.367a24.17 24.17 0 0 1 8.914-3.097c.863-.119 1.427-1.045 1.447-1.916s-.366-1.693-.743-2.479c-.646-1.346-1.355-2.765-2.626-3.55-1.708-1.055-3.907-.665-5.854-.169zm7.343 23.111c-.744.136-1.604.36-1.895 1.058-.238.569.013 1.214.262 1.778l2.847 6.461c.297.673.689 1.427 1.407 1.588.51.113 1.028-.118 1.5-.345l4.389-2.102c.823-.394 1.695-.833 2.147-1.627s.212-2.035-.668-2.277c-.47-.13-.966.055-1.404.268-1.31.636-2.491 1.562-3.89 1.969s-3.179.094-3.843-1.202a44.56 44.56 0 0 0 9.784-4.903c-.273-1.902-2.939-2.071-4.829-1.726l-5.807 1.06zm-28.154-49.448c.56-.61 1.373-.908 2.153-1.185l6.439-2.289c1.116-.397.842-2.252-.21-2.794s-2.324-.204-3.456.145l-7.365 2.268c-.32.099-.657.207-.882.456-.513.569-.168 1.465.197 2.139l2.918 5.391c.114.21.241.433.457.534.261.122.567.029.84-.065l8.962-3.097c.713-.247 1.569-.698 1.509-1.45-.082-1.025-1.585-1.033-2.566-.722l-9.219 2.926c-.542-.626-.337-1.648.223-2.257zm38.192-117.234l-7.936 4.485c-.318.179-.652.375-.826.696-.462.849.45 1.771 1.253 2.31l4.936 3.307c.324.217.673.442 1.063.446.886.008 1.342-1.035 1.57-1.891l2.19-8.249c.091-.345.181-.723.033-1.048-.358-.784-1.533-.48-2.283-.056zM581.802 536.96c-.64.164-1.367.403-1.607 1.018-.178.458-.016.974.192 1.419a7.14 7.14 0 0 0 2.428 2.852l8.326-3.178c1.192-.456 2.604-1.222 2.554-2.498-.036-.913-.899-1.621-1.795-1.797s-1.817.053-2.702.281l-7.396 1.903zm-40.213-99.839c.971 1.895 3.373 2.444 5.475 2.785l10.058 1.63c.058-1.903-1.905-3.168-3.649-3.932-3.196-1.4-6.531-2.481-9.941-3.222-.368-.08-.751-.156-1.117-.068-1.092.263-1.338 1.806-.826 2.807zm-12.428-1.435c.262-.099.528-.201.755-.367 1-.735.696-2.462-.325-3.169s-2.403-.612-3.587-.24-2.29.989-3.501 1.262c-1.636.37-3.776.353-4.403 1.909-.535 1.328.692 2.833 2.091 3.141s2.833-.209 4.172-.717l4.798-1.819zm6.436 11.984c1.351-.882.726-3.203-.711-3.937s-3.163-.39-4.735-.031c-1.659.38-3.43.824-4.56 2.096s-1.128 3.656.413 4.376c2.095.979 4.06-1.785 6.346-2.127 1.093-.163 2.322.226 3.247-.377zm47.426 74.368c.453-.152.932-.322 1.224-.701.325-.421.336-1.022.153-1.521-.431-1.168-1.777-1.79-3.022-1.767s-2.418.552-3.549 1.071l-4.322 1.983c-.792.364-1.688.858-1.818 1.72-.134.876.671 1.671 1.537 1.856s1.759-.074 2.606-.335l7.191-2.306zm6.491 30.504l9.308-3.914c.293-.123.597-.253.81-.489.63-.698.055-1.914-.823-2.25s-1.859-.076-2.762.186l-6.29 1.821c-1.16.336-2.458.788-2.946 1.892-.668 1.51 1.182 3.394 2.703 2.754zm20.944 18.087c1.239-.478.787-2.567-.444-3.067s-2.612.013-3.858.472a47.07 47.07 0 0 1-7.52 2.08c-.892 1.2.195 3.04 1.634 3.447s2.957-.139 4.352-.677l5.836-2.255zm-66.05-139.039l7.5 1.966c.951.249 2.418.109 2.349-.872a36.69 36.69 0 0 0-14.455-5.933c-.274-.048-.563-.092-.824.003-.897.326-.555 1.715.12 2.389 1.397 1.394 3.401 1.947 5.31 2.447zm9.446-9.658l2.652 6.378c.533 1.281 1.131 2.641 2.306 3.378s3.086.424 3.471-.908c.293-1.015-.393-2.029-1.045-2.861a259.34 259.34 0 0 0-7.688-9.344c-.584 1.01-.144 2.28.304 3.357zm-4.282 3.995c.469.162 1.04.308 1.42-.013.443-.375.283-1.1-.018-1.596-1.096-1.804-3.313-2.518-5.343-3.095l-8.187-2.326c-.849-.241-1.487.997-1.09 1.784s1.31 1.141 2.143 1.429l11.075 3.817zm36.492 117.214c-.767.232-1.601.514-2.02 1.197-.746 1.215.344 2.799 1.626 3.423 2.895-2.356 6.583-3.717 10.313-3.807 1.27-.03 1.38-2.158.304-2.832s-2.473-.326-3.689.042l-6.534 1.977zm-12.122-33.227l-5.279 1.396c-1.614.426-3.637 1.482-3.25 3.106.33 1.382 2.261 1.696 3.557 1.114s2.285-1.711 3.575-2.306c2.109-.973 5.078-.619 6.26-2.617-1.007-1.431-3.171-1.141-4.863-.693zm-65.952-93.057c-.338.146-.686.313-.909.606-.575.756.052 1.932.942 2.264s1.879.093 2.802-.128c3.105-.743 6.265-1.258 9.445-1.539.309-1.744-1.971-2.722-3.742-2.792a19.66 19.66 0 0 0-8.538 1.589zm51.46 67.651c.912-.966.396-3.119-.908-2.865a29.26 29.26 0 0 0-9.785 3.839c-.7 1.425 1.236 2.903 2.804 2.656s2.828-1.398 4.297-1.999c1.23-.504 2.679-.665 3.592-1.631zm1.894-31.244c-.41-.517-1.065-.763-1.687-.985l-9.066-3.242c-.827-.296-1.753-.59-2.558-.237s-1.125 1.685-.338 2.075a51.15 51.15 0 0 0 12.216 4.214c.44.091.932.168 1.311-.073.557-.355.531-1.234.122-1.752zm-14.228-35.554c.431.256.997-.227 1.009-.728s-.326-.937-.665-1.306c-3.246-3.542-8.01-5.196-12.567-6.719-1.156-.386-2.847-.517-3.184.654a171.67 171.67 0 0 1 15.407 8.099zm67.213 157.127c-.273-.949-1.275-1.54-2.258-1.639s-1.958.193-2.902.482l-4.946 1.512c-1.139.348-2.523 1.033-2.428 2.22.078.967 1.204 1.545 2.168 1.452s1.816-.638 2.69-1.056a10.97 10.97 0 0 1 6.178-.97c.979.133 1.77-1.051 1.498-2.001zM510.934 424.08c-.014.893.684 1.743 1.562 1.905.567.104 1.146-.052 1.702-.207l9.627-2.683c.051-.902-.728-1.681-1.593-1.943s-1.793-.127-2.686.009l-6.992 1.064c-.883.134-1.606.963-1.62 1.855zm53.006 64.189c.128-.838-.697-1.578-1.538-1.684s-1.667.238-2.445.574l-7.43 3.208c-.736.935.17 2.418 1.331 2.681s2.339-.268 3.411-.785l5.075-2.447c.696-.335 1.479-.783 1.596-1.547zm-35.418-85.752c.285.509.853.779 1.385 1.017l13.238 5.931c.783.351 1.926.59 2.312-.177.415-.822-.608-1.608-1.456-1.969l-14.241-6.05c-.239-.101-.494-.205-.749-.162-.575.096-.774.902-.489 1.41zm22.853 56.927c-.148-.062-.307-.126-.465-.095-.164.032-.3.175-.324.341.386 2.641 3.349 3.942 5.888 4.766l9.954 3.231c.797-.882-.505-2.104-1.6-2.566l-13.453-5.677zm-24.535-30.949c.37-.697-.187-1.569-.889-1.93-1.227-.631-2.707-.279-4.037.086l-4.546 1.247c-1.091.3-2.408.866-2.448 1.998-.031.846.768 1.539 1.601 1.694s1.683-.09 2.495-.332l6.484-1.936c.517-.154 1.087-.35 1.34-.827zm75.121 122.873c-.901-.521-2.034-.216-3.025.101l-9.461 3.025c-.698 1.117.571 2.602 1.886 2.681s2.506-.689 3.667-1.311c2.111-1.131 4.438-1.859 6.817-2.132 1.035-.119 1.017-1.842.116-2.364zm-60.231-95.744c-1.01-.27-2.08-.082-3.109.108l-3.817.704c-1.443.266-3.273 1.013-3.12 2.472.09.861.94 1.483 1.797 1.608s1.718-.13 2.547-.382l7.618-2.32c.025-1.046-.906-1.919-1.916-2.19zm-8.662-17.107c-.706-.721-1.869-.773-2.839-.492s-1.839.831-2.786 1.179c-1.117.41-2.325.531-3.438.952s-2.189 1.262-2.382 2.436c.418.978 1.821.868 2.848.592l8.159-2.197c.975-.263 1.145-1.749.438-2.47zm-3.784 13.308c-1.133.33-.938 2.202.095 2.772s2.309.255 3.443-.073l7.133-2.06c.174-1.188-.913-2.263-2.085-2.521s-2.385.079-3.538.414l-5.048 1.468zm13.49-167.278c1.512-1.089 1.279-3.336 1.324-5.199-1.971-.24-4.129-.44-5.791.646s-2.106 4.02-.328 4.901c.611.303 1.324.295 2.006.28.968-.021 2.003-.063 2.789-.628zm3.81 158.368c-.952-.098-2.339.323-2.068 1.241.13.441.614.657 1.046.814a54.42 54.42 0 0 0 12.852 2.946c.543-.125.702-.893.418-1.372s-.83-.727-1.347-.934a40.31 40.31 0 0 0-10.901-2.695zM527.3 396.918a161.76 161.76 0 0 0 10.948 5.119c.721.305 1.539.607 2.264.31s1.001-1.511.283-1.825l-12.659-5.54c-.67-.293-1.625-.503-1.988.133-.397.697.438 1.437 1.152 1.803zm35.473 61.773c-.61-.554-1.431-.802-2.222-1.035l-9.988-2.934c-.46-.135-.973-.267-1.404-.055s-.587.937-.156 1.148a67.33 67.33 0 0 0 14.303 5.102c.409-.716.078-1.671-.533-2.226zm2.612 51.38l7.122-2.519c1.044-.37 2.165-.798 2.763-1.73-.153-.836-1.057-1.362-1.907-1.379s-1.654.351-2.424.711l-6.242 2.916c-.751.351-1.617.868-1.63 1.697.39.761 1.512.589 2.318.304zm-18.864-47.48c.555-.617.056-1.689-.715-1.997s-1.639-.095-2.441.119l-8.174 2.187c-.494.573-.05 1.541.645 1.84s1.492.14 2.231-.024l7.375-1.637c.392-.087.811-.189 1.079-.488zm33.293 51.063c-.561-.124-1.135.098-1.668.316l-8.713 3.561c-.842.344-.502 1.772.352 2.084s1.786-.092 2.604-.488l7.488-3.625c.284-.137.587-.293.726-.575.255-.516-.227-1.15-.789-1.273zm-21.326-46.128c-1.118-.414-2.731-.63-3.177.475 3.936 2.027 8.112 3.59 12.412 4.646.878-.531-.219-1.783-1.181-2.139l-8.054-2.982zm-54.152-54.399c-.752.854-.012 2.473 1.126 2.464a18.48 18.48 0 0 1 8.733-2.944c-.981-1.228-2.682-1.694-4.249-1.571s-3.046.747-4.493 1.364c-.406.173-.826.356-1.117.687zm63.614 63.788c.851.206 2.192-.033 1.98-.883a49.27 49.27 0 0 0-11.138-3.507c-.423.571-.169 1.434.36 1.908s1.251.657 1.942.824l6.856 1.658zm-2.69 4.455c1.991.616 4.053 1.004 6.132 1.154.416-.55.178-1.391-.331-1.857s-1.207-.651-1.876-.821l-6.362-1.618c-.771 1.325.973 2.689 2.437 3.142zm45.341 113.055c-.475 1.166.142 2.797 1.391 2.959a22.12 22.12 0 0 0 3.948-5.09c-.602-.651-1.665-.494-2.498-.187-1.182.435-2.366 1.152-2.841 2.318zm-33.209-96.848a8.39 8.39 0 0 0-3.6-1.974c-.215 1.897.873 3.873 2.591 4.705.412.199.9.336 1.321.157 1.063-.452.533-2.101-.312-2.888zm-4.977-11.919c-.696-.502-1.595-.598-2.45-.678l-3.157-.294c-.51 1.228.934 2.423 2.25 2.615s2.755-.07 3.904.598c.521-.682.148-1.739-.547-2.241zm8.156 23.13c.413.352.921.666 1.46.607.19-2.583-1.555-4.986-3.727-6.396-.255 2.143.624 4.389 2.267 5.789zm-6.742-17.409c-1.218-.672-2.652-.948-4.033-.775.501 1.346 1.693 2.412 3.086 2.761.745.187 1.676.104 2.082-.549s-.395-1.732-1.024-1.29m-68.357-83.823c-1.155.205-2.239.792-3.042 1.647a4.4 4.4 0 0 0 4.149-1.035c-.266-.357-.678-.601-1.118-.662"/></g><path d="M480.8 522.595c11.784-11.319 28.324-9.723 39.893 2.698 10.06 10.806 7.669 25.081-3.756 37.054-4.31 4.472-12.963 7.438-19.224 6.711-5.301-.526-13.555-4.433-18.457-8.034-2.269-1.668-4.345-5.105-6.302-10.326l-.289-.78c-3.478-9.642-1.129-19.834 6.749-26.23l.369-.294.083-.114a1.73 1.73 0 0 1 .237-.24l.143-.11.161-.103.335-.169.058-.063zm20.485 38.881l-3.564 3.812.393.033c3.654.266 7.228-.306 10.478-1.688l.181-.08-.252-.014c-2.245-.161-4.619-.847-7.084-1.992l-.152-.071zm-10.398-7.159l-.334-.306-.351.342-4.223 4.148-1.627 1.615c.461.335.94.663 1.439.983 2.254 1.469 4.688 2.583 7.207 3.306l.541.149 2.605-2.744 1.95-2.063-.128-.076c-2.45-1.505-4.858-3.352-7.079-5.354zm17 .095l-4.248 4.546.214.093c3.306 1.385 6.245 1.648 8.775.627l.266-.114-.256-.289c-1.278-1.43-2.652-2.847-4.156-4.295l-.595-.568zm-25.595-9.592l-.754.741-3.287 3.148-1.739 1.626.146.348a21.97 21.97 0 0 0 4.955 7.141l.076.072.243-.246 4.81-4.789 1.295-1.262-.352-.354c-1.937-1.97-3.594-3.899-4.989-5.848l-.404-.577zm32.534 2.167l-4.636 4.961.047.044c1.779 1.697 3.405 3.363 4.914 5.045l.458.516.014-.016c1.583-2.149 1.31-5.651-.59-10.08l-.207-.47zm-16.221-.672l-.344.323-4.831 4.59-.463.444.432.381c2.266 1.981 4.438 3.645 6.608 4.986l.41.247 2.91-3.089 2.003-2.134-.662-.587-4.131-3.544-1.932-1.617zm24.769-8.471l-6.415 6.861.209.403 1.04 2.12.505 1.085.47 1.045c.479 1.011.81 2.018.987 3.01l.026.168.191-.344c2.596-4.759 3.66-9.656 3.009-14.207l-.022-.141zm-14.11-.075l-.329-.437-1.17.982-3.259 2.695-.583.49-1.635 1.41-.578.519-.597.551 1.344 1.122 4.026 3.454 1.161 1.035 3.728-3.994 1.773-1.908-.013-.026c-1.115-1.966-2.44-3.974-3.868-5.893zm-19.857.402l-.279-.274-.088.094-3.299 3.398-1.107 1.112.231.353c1.348 2.02 3.015 3.992 4.96 5.903l.492.477.089.084.152-.145 3.467-3.283 1.919-1.797-.265-.221a131.64 131.64 0 0 1-6.272-5.701zm-11.855-7.28l-.106.177c-2.639 4.437-3.453 9.951-2.228 15.205l.11.45.055.214.554-.516 3.444-3.299 1.159-1.14-.11-.202c-1.899-3.533-2.893-7.121-2.878-10.807v-.082zm20.962-3.321l-1.376 1.581-4.752 5.276-.946 1.016.236.229a128.89 128.89 0 0 0 5.831 5.301l.941.796.898-.827a74.21 74.21 0 0 1 1.894-1.657l1.146-.961 2.693-2.218 1.324-1.105.395-.335-.191-.223c-.924-1.073-1.794-1.994-2.517-2.67l-.212-.195c-1.468-1.324-3.073-2.536-4.861-3.689l-.503-.319zm19.446-.193l-.144.253c-1.487 2.521-3.536 4.882-6.324 7.452l-.233.212.084.116a72.24 72.24 0 0 1 3.467 5.368l.396.688 3.119-3.368 3.945-4.282-.091-.224c-.908-2.156-2.255-4.179-4.047-6.041l-.172-.174zm-36.914 1.917l-.015.145c-.321 3.4.345 6.744 1.905 10.034l.04.081.416-.416 2.742-2.816.693-.727-.281-.287c-1.599-1.646-3.167-3.347-4.715-5.111l-.785-.903zm1.55-3.76l-.238.115.061.074c2.111 2.518 4.262 4.902 6.487 7.19l.228.232.929-.996 4.821-5.358.772-.888-.083-.045-1.206-.64-.626-.321c-3.673-1.803-6.386-1.603-10.775.461l-.37.176zm22.971-6.432l-1.353 1.678-2.766 3.349-.652.772.166.105c2.461 1.587 4.557 3.31 6.281 5.219l.391.444 1.129 1.348.426.531.059-.053c2.745-2.559 4.684-4.89 6.014-7.394l.038-.077-.352-.278c-3.559-2.797-6.165-4.459-8.924-5.481l-.457-.163zm-5.442-.962c-3.486-.025-6.661.598-9.591 1.878l-.167.074.292.038a9.11 9.11 0 0 1 1.891.491l.309.123c1.66.731 3.186 1.463 4.618 2.224l.478.259.938-1.106 2.838-3.434.336-.417-.408-.046c-.34-.035-.68-.059-1.021-.072l-.513-.012zm59.259-238.687c1.102-2.984 5.07-4.216 7.998-2.972s4.745 4.352 5.204 7.5-.238 6.347-1.134 9.399a71.66 71.66 0 0 1-2.951 8.18c-.106.248-.249.525-.512.584-.28.063-.539-.155-.74-.359a28.95 28.95 0 0 1-8.235-19.059c-.041-1.104-.013-2.236.37-3.273zm8.6.728c-.816-.7-1.87-1.158-2.945-1.125-2.509.076-4.259 2.813-4.204 5.322s1.393 4.787 2.69 6.936l2.788 4.617c.317.524.94 1.122 1.433.759.199-.146.276-.403.34-.641l1.141-4.194c.544-1.999 1.092-4.03 1.058-6.101s-.728-4.225-2.301-5.573h0zm-1.641 8.033a2.97 2.97 0 0 1-1.87-.091c-1.148-.447-1.94-1.677-1.874-2.907s.987-2.368 2.177-2.689c1.802-.486 3.831 1.175 3.711 3.037a3.03 3.03 0 0 1-2.144 2.65z" fill="#ffb61d"/></g></svg>